<?xml version="1.0" encoding="utf-8"?>
<!-- Generator: Adobe Illustrator 16.0.3, SVG Export Plug-In . SVG Version: 6.00 Build 0)  -->
<!DOCTYPE svg PUBLIC "-//W3C//DTD SVG 1.1//EN" "http://www.w3.org/Graphics/SVG/1.1/DTD/svg11.dtd">
<svg version="1.1" id="Capa_1" xmlns="http://www.w3.org/2000/svg" xmlns:xlink="http://www.w3.org/1999/xlink" x="0px" y="0px"
	 width="637.468px" height="206.402px" viewBox="0 0 637.468 206.402" enable-background="new 0 0 637.468 206.402"
	 xml:space="preserve">
<linearGradient id="SVGID_1_" gradientUnits="userSpaceOnUse" x1="59.7334" y1="-29.7559" x2="599.8458" y2="243.9277">
	<stop  offset="0.0733" style="stop-color:#FF0000"/>
	<stop  offset="0.1728" style="stop-color:#FF0000"/>
	<stop  offset="0.2304" style="stop-color:#FEA227"/>
	<stop  offset="0.288" style="stop-color:#F50A08"/>
	<stop  offset="0.6754" style="stop-color:#F50A08"/>
	<stop  offset="0.9162" style="stop-color:#F50A08"/>
</linearGradient>
<path fill="url(#SVGID_1_)" stroke="#000000" stroke-width="8" stroke-miterlimit="10" d="M621.393,165.11
	c0,13.857-7.507,28.292-20.465,28.292H42.859c-12.96,0-26.466-14.435-26.466-28.292V35.292c0-13.857,13.505-21.89,26.466-21.89
	h558.069c12.958,0,20.465,8.033,20.465,21.89V165.11z"/>
<linearGradient id="SVGID_2_" gradientUnits="userSpaceOnUse" x1="40.3931" y1="103.4023" x2="597.3931" y2="103.4023">
	<stop  offset="0.0733" style="stop-color:#FF0000"/>
	<stop  offset="0.3089" style="stop-color:#F50A08"/>
	<stop  offset="0.4921" style="stop-color:#FF0000"/>
	<stop  offset="0.6754" style="stop-color:#F50A08"/>
	<stop  offset="0.9162" style="stop-color:#F50A08"/>
</linearGradient>
<linearGradient id="SVGID_3_" gradientUnits="userSpaceOnUse" x1="35.3931" y1="103.4023" x2="602.3931" y2="103.4023">
	<stop  offset="0.1361" style="stop-color:#FEA227"/>
	<stop  offset="0.1937" style="stop-color:#FFE05B"/>
	<stop  offset="0.2723" style="stop-color:#FEA227"/>
	<stop  offset="0.9372" style="stop-color:#FEA227"/>
</linearGradient>
<polygon fill="url(#SVGID_2_)" stroke="url(#SVGID_3_)" stroke-width="10" stroke-miterlimit="10" points="597.393,98.201 
	597.393,149.402 569.393,149.402 550.393,168.402 92.393,168.402 73.393,151.402 40.393,151.402 40.393,98.201 40.393,54.402 
	73.393,54.402 92.393,38.402 550.393,38.402 569.393,56.402 597.393,56.402 "/>
<g>
</g>
<g>
</g>
<g>
</g>
<g>
</g>
<g>
</g>
<g>
</g>
<g>
</g>
<g>
</g>
<g>
</g>
<g>
</g>
<g>
</g>
<g>
</g>
<g>
</g>
<g>
</g>
<g>
</g>
</svg>
