<?xml version="1.0" encoding="utf-8"?>
<!-- Generator: Adobe Illustrator 16.0.3, SVG Export Plug-In . SVG Version: 6.00 Build 0)  -->
<!DOCTYPE svg PUBLIC "-//W3C//DTD SVG 1.1//EN" "http://www.w3.org/Graphics/SVG/1.1/DTD/svg11.dtd">
<svg version="1.1" id="Capa_1" xmlns="http://www.w3.org/2000/svg" xmlns:xlink="http://www.w3.org/1999/xlink" x="0px" y="0px"
	 width="637.469px" height="277px" viewBox="0 0 637.469 277" enable-background="new 0 0 637.469 277" xml:space="preserve">
<linearGradient id="SVGID_1_" gradientUnits="userSpaceOnUse" x1="58.9165" y1="-1053.0273" x2="598.9924" y2="-779.3618">
	<stop  offset="0.0733" style="stop-color:#FF0000"/>
	<stop  offset="0.1728" style="stop-color:#FF0000"/>
	<stop  offset="0.2304" style="stop-color:#FEA227"/>
	<stop  offset="0.288" style="stop-color:#F50A08"/>
	<stop  offset="0.6754" style="stop-color:#F50A08"/>
	<stop  offset="0.9162" style="stop-color:#F50A08"/>
</linearGradient>
<path fill="url(#SVGID_1_)" stroke="#000000" stroke-width="8" stroke-miterlimit="10" d="M620.469-857.89
	c0,13.857-7.507,27.89-20.465,27.89H41.935c-12.96,0-26.466-14.032-26.466-27.89v-129.818c0-13.856,13.505-22.292,26.466-22.292
	h558.069c12.958,0,20.465,8.436,20.465,22.292V-857.89z"/>
<linearGradient id="SVGID_2_" gradientUnits="userSpaceOnUse" x1="39.4688" y1="-920" x2="596.4688" y2="-920">
	<stop  offset="0.0733" style="stop-color:#FF0000"/>
	<stop  offset="0.3089" style="stop-color:#F50A08"/>
	<stop  offset="0.4921" style="stop-color:#FF0000"/>
	<stop  offset="0.6754" style="stop-color:#F50A08"/>
	<stop  offset="0.9162" style="stop-color:#F50A08"/>
</linearGradient>
<linearGradient id="SVGID_3_" gradientUnits="userSpaceOnUse" x1="34.4688" y1="-920" x2="601.4688" y2="-920">
	<stop  offset="0.1361" style="stop-color:#FEA227"/>
	<stop  offset="0.1937" style="stop-color:#FFE05B"/>
	<stop  offset="0.2723" style="stop-color:#FEA227"/>
	<stop  offset="0.9372" style="stop-color:#FEA227"/>
</linearGradient>
<polygon fill="url(#SVGID_2_)" stroke="url(#SVGID_3_)" stroke-width="10" stroke-miterlimit="10" points="596.469,-924.799 
	596.469,-874 568.469,-874 549.469,-855 91.469,-855 72.469,-872 39.469,-872 39.469,-924.799 39.469,-969 72.469,-969 91.469,-985 
	549.469,-985 568.469,-967 596.469,-967 "/>
<linearGradient id="SVGID_4_" gradientUnits="userSpaceOnUse" x1="70.4658" y1="-793.042" x2="597.5248" y2="-488.7443">
	<stop  offset="0.2042" style="stop-color:#00696E"/>
	<stop  offset="0.2618" style="stop-color:#FECC3C"/>
	<stop  offset="0.3194" style="stop-color:#00696E"/>
</linearGradient>
<path fill="url(#SVGID_4_)" stroke="#000000" stroke-width="8" stroke-miterlimit="10" d="M618.469-587.39
	c0,13.857-7.039,28.39-19.996,28.39H40.403c-12.96,0-26.934-14.532-26.934-28.39v-129.818c0-13.856,13.974-21.792,26.934-21.792
	h558.07c12.957,0,19.996,7.936,19.996,21.792V-587.39z"/>
<linearGradient id="SVGID_5_" gradientUnits="userSpaceOnUse" x1="79.7441" y1="-784.8848" x2="550.4602" y2="-513.1167">
	<stop  offset="0.1361" style="stop-color:#FEA227"/>
	<stop  offset="0.2513" style="stop-color:#FFE05B"/>
	<stop  offset="0.3089" style="stop-color:#FEA227"/>
	<stop  offset="0.9372" style="stop-color:#FEA227"/>
</linearGradient>
<polygon fill="#00AAA2" stroke="url(#SVGID_5_)" stroke-width="10" stroke-miterlimit="10" points="594.469,-654.299 594.469,-603 
	566.938,-603 547.938,-584 89.937,-584 70.937,-601 37.469,-601 37.469,-654.299 37.469,-698 70.937,-698 89.937,-714 547.938,-714 
	566.938,-696 594.469,-696 "/>
<linearGradient id="SVGID_6_" gradientUnits="userSpaceOnUse" x1="70.3618" y1="-523.1963" x2="597.4743" y2="-218.8677">
	<stop  offset="0.2042" style="stop-color:#5700AD"/>
	<stop  offset="0.2618" style="stop-color:#C9DAFF"/>
	<stop  offset="0.3298" style="stop-color:#5700AD"/>
</linearGradient>
<path fill="url(#SVGID_6_)" stroke="#32117C" stroke-width="8" stroke-miterlimit="10" d="M618.469-317.792
	c0,13.857-7.039,28.792-19.996,28.792H40.403c-12.96,0-26.934-14.935-26.934-28.792V-447.61c0-13.856,13.974-21.39,26.934-21.39
	h558.07c12.957,0,19.996,7.533,19.996,21.39V-317.792z"/>
<polygon fill="#3D007A" stroke="#A24BFA" stroke-width="19" stroke-miterlimit="10" points="591.969,-393.701 591.969,-333.5 
	572.938,-333.5 553.938,-314.5 95.937,-314.5 76.937,-331.5 34.969,-331.5 34.969,-393.701 34.969,-428.5 76.937,-428.5 
	95.937,-444.5 553.938,-444.5 572.938,-426.5 591.969,-426.5 "/>
<path fill="#072B20" d="M621.469-70.76c0,15.29-9.038,31.76-24.563,31.76H45.124C29.6-39,13.469-55.47,13.469-70.76v-106.633
	C13.469-192.682,29.6-201,45.124-201h551.781c15.525,0,24.563,8.318,24.563,23.607V-70.76z"/>
<linearGradient id="SVGID_7_" gradientUnits="userSpaceOnUse" x1="263.7603" y1="-260.9961" x2="387.9243" y2="47.2853">
	<stop  offset="0" style="stop-color:#41E091"/>
	<stop  offset="0.534" style="stop-color:#148157"/>
	<stop  offset="0.6702" style="stop-color:#005C39"/>
</linearGradient>
<path fill="url(#SVGID_7_)" stroke="#0A7758" stroke-miterlimit="10" d="M618.969-79.76c0,15.29-8.538,32.26-24.063,32.26H43.124
	c-15.524,0-32.155-16.97-32.155-32.26v-106.633c0-15.289,16.631-23.107,32.155-23.107h551.781c15.525,0,24.063,7.818,24.063,23.107
	V-79.76z"/>
<path fill="#069360" stroke="#10AF7A" stroke-miterlimit="10" d="M597.969-88.448c0,11.294-7.923,21.948-18.969,21.948H54
	c-11.046,0-21.031-10.654-21.031-21.948v-80.771c0-11.294,9.985-19.281,21.031-19.281h525c11.046,0,18.969,7.987,18.969,19.281
	V-88.448z"/>
<path fill="#02281B" stroke="#02281B" stroke-width="6" stroke-miterlimit="10" d="M622.469,205c0,26.51-21.49,48-48,48h-515
	c-26.51,0-48-21.49-48-48V82c0-26.51,21.49-48,48-48h515c26.51,0,48,21.49,48,48V205z"/>
<linearGradient id="SVGID_8_" gradientUnits="userSpaceOnUse" x1="164.8921" y1="-159.8936" x2="422.0146" y2="336.1597">
	<stop  offset="0.2199" style="stop-color:#68D75B"/>
	<stop  offset="0.5445" style="stop-color:#148165"/>
	<stop  offset="1" style="stop-color:#005C39"/>
</linearGradient>
<path fill="url(#SVGID_8_)" stroke="#033F2C" stroke-width="8" stroke-miterlimit="10" d="M622.469,195c0,26.51-21.49,48-48,48h-515
	c-26.51,0-48-21.49-48-48V72c0-26.51,21.49-48,48-48h515c26.51,0,48,21.49,48,48V195z"/>
<path fill="#069360" stroke="#63EAB0" stroke-miterlimit="10" d="M593.969,188.5c0,16.568-13.432,30-30,30h-493
	c-16.568,0-30-13.432-30-30v-107c0-16.568,13.432-30,30-30h493c16.568,0,30,13.432,30,30V188.5z"/>
<g>
</g>
<g>
</g>
<g>
</g>
<g>
</g>
<g>
</g>
<g>
</g>
<g>
</g>
<g>
</g>
<g>
</g>
<g>
</g>
<g>
</g>
<g>
</g>
<g>
</g>
<g>
</g>
<g>
</g>
</svg>
