<?xml version="1.0" encoding="utf-8"?>
<!-- Generator: Adobe Illustrator 16.0.3, SVG Export Plug-In . SVG Version: 6.00 Build 0)  -->
<!DOCTYPE svg PUBLIC "-//W3C//DTD SVG 1.1//EN" "http://www.w3.org/Graphics/SVG/1.1/DTD/svg11.dtd">
<svg version="1.1" id="Capa_1" xmlns="http://www.w3.org/2000/svg" xmlns:xlink="http://www.w3.org/1999/xlink" x="0px" y="0px"
	 width="536px" height="310px" viewBox="0 0 536 310" enable-background="new 0 0 536 310" xml:space="preserve">
<line fill="none" stroke="#EBEDEC" stroke-width="0.75" stroke-miterlimit="10" x1="-1323.49" y1="-409.186" x2="-1315.255" y2="-393.424"/>
<g>
	<polygon fill="#00ACB3" stroke="#262626" stroke-width="2" stroke-miterlimit="10" points="-926.52,-853 -971.077,-930.5 
		-926.52,-1008 -837.402,-1008 -792.845,-930.5 -837.402,-853 	"/>
	<polygon fill="#007176" stroke="#262626" stroke-width="2" stroke-miterlimit="10" points="-926.52,-698 -971.077,-775.5 
		-926.52,-853 -837.402,-853 -792.845,-775.5 -837.402,-698 	"/>
	<polygon fill="#00ACB3" stroke="#262626" stroke-width="2" stroke-miterlimit="10" points="-926.52,-543 -971.077,-620.5 
		-926.52,-698 -837.402,-698 -792.845,-620.5 -837.402,-543 	"/>
	<polygon fill="#007176" stroke="#262626" stroke-width="2" stroke-miterlimit="10" points="-926.52,-388 -971.077,-465.5 
		-926.52,-543 -837.402,-543 -792.845,-465.5 -837.402,-388 	"/>
	<polygon fill="#00ACB3" stroke="#262626" stroke-width="2" stroke-miterlimit="10" points="-792.52,-776 -837.077,-853.5 
		-792.52,-931 -703.402,-931 -658.845,-853.5 -703.402,-776 	"/>
	<polygon fill="#007176" stroke="#262626" stroke-width="2" stroke-miterlimit="10" points="-792.52,-621 -837.077,-698.5 
		-792.52,-776 -703.402,-776 -658.845,-698.5 -703.402,-621 	"/>
	<polygon fill="#00ACB3" stroke="#262626" stroke-width="2" stroke-miterlimit="10" points="-792.52,-466 -837.077,-543.5 
		-792.52,-621 -703.402,-621 -658.845,-543.5 -703.402,-466 	"/>
	<polygon fill="#007176" stroke="#262626" stroke-width="2" stroke-miterlimit="10" points="-792.52,-311 -837.077,-388.5 
		-792.52,-466 -703.402,-466 -658.845,-388.5 -703.402,-311 	"/>
	<polygon fill="#007176" stroke="#262626" stroke-width="2" stroke-miterlimit="10" points="-658.52,-854 -703.077,-931.5 
		-658.52,-1009 -569.402,-1009 -524.845,-931.5 -569.402,-854 	"/>
	<polygon fill="#00ACB3" stroke="#262626" stroke-width="2" stroke-miterlimit="10" points="-658.52,-699 -703.077,-776.5 
		-658.52,-854 -569.402,-854 -524.845,-776.5 -569.402,-699 	"/>
	<polygon fill="#007176" stroke="#262626" stroke-width="2" stroke-miterlimit="10" points="-658.52,-544 -703.077,-621.5 
		-658.52,-699 -569.402,-699 -524.845,-621.5 -569.402,-544 	"/>
	<polygon fill="#00ACB3" stroke="#262626" stroke-width="2" stroke-miterlimit="10" points="-658.52,-389 -703.077,-466.5 
		-658.52,-544 -569.402,-544 -524.845,-466.5 -569.402,-389 	"/>
	<polygon fill="#007176" stroke="#262626" stroke-width="2" stroke-miterlimit="10" points="-524.52,-777 -569.077,-854.5 
		-524.52,-932 -435.402,-932 -390.845,-854.5 -435.402,-777 	"/>
	<polygon fill="#00ACB3" stroke="#262626" stroke-width="2" stroke-miterlimit="10" points="-524.52,-622 -569.077,-699.5 
		-524.52,-777 -435.402,-777 -390.845,-699.5 -435.402,-622 	"/>
	<polygon fill="#007176" stroke="#262626" stroke-width="2" stroke-miterlimit="10" points="-524.52,-467 -569.077,-544.5 
		-524.52,-622 -435.402,-622 -390.845,-544.5 -435.402,-467 	"/>
	<polygon fill="#00ACB3" stroke="#262626" stroke-width="2" stroke-miterlimit="10" points="-524.52,-312 -569.077,-389.5 
		-524.52,-467 -435.402,-467 -390.845,-389.5 -435.402,-312 	"/>
	<polygon fill="#007176" stroke="#262626" stroke-width="2" stroke-miterlimit="10" points="-390.52,-700 -435.077,-777.5 
		-390.52,-855 -301.402,-855 -256.845,-777.5 -301.402,-700 	"/>
	<polygon fill="#00ACB3" stroke="#262626" stroke-width="2" stroke-miterlimit="10" points="-390.52,-545 -435.077,-622.5 
		-390.52,-700 -301.402,-700 -256.845,-622.5 -301.402,-545 	"/>
	<polygon fill="#007176" stroke="#262626" stroke-width="2" stroke-miterlimit="10" points="-390.52,-390 -435.077,-467.5 
		-390.52,-545 -301.402,-545 -256.845,-467.5 -301.402,-390 	"/>
	<polygon fill="#00ACB3" stroke="#262626" stroke-width="2" stroke-miterlimit="10" points="-390.52,-235 -435.077,-312.5 
		-390.52,-390 -301.402,-390 -256.845,-312.5 -301.402,-235 	"/>
</g>
<polygon fill="#00ACB3" stroke="#262626" stroke-width="2" stroke-miterlimit="10" points="-50.52,-826.939 -95.077,-904.439 
	-50.52,-981.939 38.598,-981.939 83.155,-904.439 38.598,-826.939 "/>
<polygon fill="#00ACB3" stroke="#262626" stroke-width="2" stroke-miterlimit="10" points="-50.52,-671.939 -95.077,-749.439 
	-50.52,-826.939 38.598,-826.939 83.155,-749.439 38.598,-671.939 "/>
<polygon fill="#00ACB3" stroke="#262626" stroke-width="2" stroke-miterlimit="10" points="-50.52,-516.939 -95.077,-594.439 
	-50.52,-671.939 38.598,-671.939 83.155,-594.439 38.598,-516.939 "/>
<polygon fill="#00ACB3" stroke="#262626" stroke-width="2" stroke-miterlimit="10" points="-50.52,-361.939 -95.077,-439.439 
	-50.52,-516.939 38.598,-516.939 83.155,-439.439 38.598,-361.939 "/>
<polygon fill="#007176" stroke="#262626" stroke-width="2" stroke-miterlimit="10" points="83.48,-749.939 38.923,-827.439 
	83.48,-904.939 172.598,-904.939 217.155,-827.439 172.598,-749.939 "/>
<polygon fill="#007176" stroke="#262626" stroke-width="2" stroke-miterlimit="10" points="83.48,-594.939 38.923,-672.439 
	83.48,-749.939 172.598,-749.939 217.155,-672.439 172.598,-594.939 "/>
<polygon fill="#007176" stroke="#262626" stroke-width="2" stroke-miterlimit="10" points="83.48,-439.939 38.923,-517.439 
	83.48,-594.939 172.598,-594.939 217.155,-517.439 172.598,-439.939 "/>
<polygon fill="#007176" stroke="#262626" stroke-width="2" stroke-miterlimit="10" points="83.48,-284.939 38.923,-362.439 
	83.48,-439.939 172.598,-439.939 217.155,-362.439 172.598,-284.939 "/>
<polygon fill="#00ACB3" stroke="#262626" stroke-width="2" stroke-miterlimit="10" points="217.48,-827.939 172.923,-905.439 
	217.48,-982.939 306.598,-982.939 351.155,-905.439 306.598,-827.939 "/>
<polygon fill="#00ACB3" stroke="#262626" stroke-width="2" stroke-miterlimit="10" points="217.48,-672.939 172.923,-750.439 
	217.48,-827.939 306.598,-827.939 351.155,-750.439 306.598,-672.939 "/>
<polygon fill="#00ACB3" stroke="#262626" stroke-width="2" stroke-miterlimit="10" points="217.48,-517.939 172.923,-595.439 
	217.48,-672.939 306.598,-672.939 351.155,-595.439 306.598,-517.939 "/>
<polygon fill="#00ACB3" stroke="#262626" stroke-width="2" stroke-miterlimit="10" points="217.48,-362.939 172.923,-440.439 
	217.48,-517.939 306.598,-517.939 351.155,-440.439 306.598,-362.939 "/>
<polygon fill="#007176" stroke="#262626" stroke-width="2" stroke-miterlimit="10" points="351.48,-750.939 306.923,-828.439 
	351.48,-905.939 440.598,-905.939 485.155,-828.439 440.598,-750.939 "/>
<polygon fill="#007176" stroke="#262626" stroke-width="2" stroke-miterlimit="10" points="351.48,-595.939 306.923,-673.439 
	351.48,-750.939 440.598,-750.939 485.155,-673.439 440.598,-595.939 "/>
<polygon fill="#007176" stroke="#262626" stroke-width="2" stroke-miterlimit="10" points="351.48,-440.939 306.923,-518.439 
	351.48,-595.939 440.598,-595.939 485.155,-518.439 440.598,-440.939 "/>
<polygon fill="#007176" stroke="#262626" stroke-width="2" stroke-miterlimit="10" points="351.48,-285.939 306.923,-363.439 
	351.48,-440.939 440.598,-440.939 485.155,-363.439 440.598,-285.939 "/>
<polygon fill="#00ACB3" stroke="#262626" stroke-width="2" stroke-miterlimit="10" points="485.48,-673.939 440.923,-751.439 
	485.48,-828.939 574.598,-828.939 619.155,-751.439 574.598,-673.939 "/>
<polygon fill="#00ACB3" stroke="#262626" stroke-width="2" stroke-miterlimit="10" points="485.48,-518.939 440.923,-596.439 
	485.48,-673.939 574.598,-673.939 619.155,-596.439 574.598,-518.939 "/>
<polygon fill="#00ACB3" stroke="#262626" stroke-width="2" stroke-miterlimit="10" points="485.48,-363.939 440.923,-441.439 
	485.48,-518.939 574.598,-518.939 619.155,-441.439 574.598,-363.939 "/>
<polygon fill="#00ACB3" stroke="#262626" stroke-width="2" stroke-miterlimit="10" points="485.48,-208.939 440.923,-286.439 
	485.48,-363.939 574.598,-363.939 619.155,-286.439 574.598,-208.939 "/>
<line fill="none" stroke="#EBEDEC" stroke-width="0.75" stroke-miterlimit="10" x1="-929.49" y1="-567.186" x2="-921.255" y2="-551.424"/>
<line fill="none" stroke="#EBEDEC" stroke-width="0.75" stroke-miterlimit="10" x1="-796.49" y1="-488.186" x2="-788.255" y2="-472.424"/>
<line fill="none" stroke="#EBEDEC" stroke-width="2" stroke-miterlimit="10" x1="-662.49" y1="-564.246" x2="-654.255" y2="-548.484"/>
<line fill="none" stroke="#EBEDEC" stroke-width="2" stroke-miterlimit="10" x1="-394.49" y1="-565.246" x2="-386.255" y2="-549.484"/>
<line fill="none" stroke="#EBEDEC" stroke-width="2" stroke-miterlimit="10" x1="-526.49" y1="-647.246" x2="-518.255" y2="-631.484"/>
<line fill="none" stroke="#EBEDEC" stroke-width="2" stroke-miterlimit="10" x1="-394.49" y1="-725.246" x2="-386.255" y2="-709.484"/>
<line fill="none" stroke="#EBEDEC" stroke-width="2" stroke-miterlimit="10" x1="-529.49" y1="-801.246" x2="-521.255" y2="-785.484"/>
<line fill="none" stroke="#EBEDEC" stroke-width="2" stroke-miterlimit="10" x1="-796.49" y1="-799.246" x2="-788.255" y2="-783.484"/>
<line fill="none" stroke="#EBEDEC" stroke-width="2" stroke-miterlimit="10" x1="-663.49" y1="-725.246" x2="-655.255" y2="-709.484"/>
<line fill="none" stroke="#EBEDEC" stroke-width="2" stroke-miterlimit="10" x1="-798.49" y1="-648.246" x2="-790.255" y2="-632.484"/>
<polygon fill="#0C7C84" stroke="#262626" stroke-width="2" stroke-miterlimit="10" points="-926.52,-103 -971.077,-180.5 
	-926.52,-258 -837.402,-258 -792.845,-180.5 -837.402,-103 "/>
<polygon fill="#00ACB3" stroke="#262626" stroke-width="2" stroke-miterlimit="10" points="-926.52,52 -971.077,-25.5 -926.52,-103 
	-837.402,-103 -792.845,-25.5 -837.402,52 "/>
<polygon fill="#0C7C84" stroke="#262626" stroke-width="2" stroke-miterlimit="10" points="-926.52,207 -971.077,129.5 -926.52,52 
	-837.402,52 -792.845,129.5 -837.402,207 "/>
<polygon fill="#00ACB3" stroke="#262626" stroke-width="2" stroke-miterlimit="10" points="-926.52,362 -971.077,284.5 -926.52,207 
	-837.402,207 -792.845,284.5 -837.402,362 "/>
<polygon fill="#0C7C84" stroke="#262626" stroke-width="2" stroke-miterlimit="10" points="-792.52,-26 -837.077,-103.5 
	-792.52,-181 -703.402,-181 -658.845,-103.5 -703.402,-26 "/>
<polygon fill="#00ACB3" stroke="#262626" stroke-width="2" stroke-miterlimit="10" points="-792.52,129 -837.077,51.5 -792.52,-26 
	-703.402,-26 -658.845,51.5 -703.402,129 "/>
<polygon fill="#0C7C84" stroke="#262626" stroke-width="2" stroke-miterlimit="10" points="-792.52,284 -837.077,206.5 -792.52,129 
	-703.402,129 -658.845,206.5 -703.402,284 "/>
<polygon fill="#00ACB3" stroke="#262626" stroke-width="2" stroke-miterlimit="10" points="-792.52,439 -837.077,361.5 -792.52,284 
	-703.402,284 -658.845,361.5 -703.402,439 "/>
<polygon fill="#00ACB3" stroke="#262626" stroke-width="2" stroke-miterlimit="10" points="-658.52,-104 -703.077,-181.5 
	-658.52,-259 -569.402,-259 -524.845,-181.5 -569.402,-104 "/>
<polygon fill="#0C7C84" stroke="#262626" stroke-width="2" stroke-miterlimit="10" points="-658.52,51 -703.077,-26.5 -658.52,-104 
	-569.402,-104 -524.845,-26.5 -569.402,51 "/>
<polygon fill="#00ACB3" stroke="#262626" stroke-width="2" stroke-miterlimit="10" points="-658.52,206 -703.077,128.5 -658.52,51 
	-569.402,51 -524.845,128.5 -569.402,206 "/>
<polygon fill="#0C7C84" stroke="#262626" stroke-width="2" stroke-miterlimit="10" points="-658.52,361 -703.077,283.5 -658.52,206 
	-569.402,206 -524.845,283.5 -569.402,361 "/>
<polygon fill="#00ACB3" stroke="#262626" stroke-width="2" stroke-miterlimit="10" points="-524.52,-27 -569.077,-104.5 
	-524.52,-182 -435.402,-182 -390.845,-104.5 -435.402,-27 "/>
<polygon fill="#0C7C84" stroke="#262626" stroke-width="2" stroke-miterlimit="10" points="-524.52,128 -569.077,50.5 -524.52,-27 
	-435.402,-27 -390.845,50.5 -435.402,128 "/>
<polygon fill="#00ACB3" stroke="#262626" stroke-width="2" stroke-miterlimit="10" points="-524.52,283 -569.077,205.5 -524.52,128 
	-435.402,128 -390.845,205.5 -435.402,283 "/>
<polygon fill="#0C7C84" stroke="#262626" stroke-width="2" stroke-miterlimit="10" points="-524.52,438 -569.077,360.5 -524.52,283 
	-435.402,283 -390.845,360.5 -435.402,438 "/>
<polygon fill="#00ACB3" stroke="#262626" stroke-width="2" stroke-miterlimit="10" points="-390.52,50 -435.077,-27.5 -390.52,-105 
	-301.402,-105 -256.845,-27.5 -301.402,50 "/>
<polygon fill="#0C7C84" stroke="#262626" stroke-width="2" stroke-miterlimit="10" points="-390.52,205 -435.077,127.5 -390.52,50 
	-301.402,50 -256.845,127.5 -301.402,205 "/>
<polygon fill="#00ACB3" stroke="#262626" stroke-width="2" stroke-miterlimit="10" points="-390.52,360 -435.077,282.5 -390.52,205 
	-301.402,205 -256.845,282.5 -301.402,360 "/>
<polygon fill="#0C7C84" stroke="#262626" stroke-width="2" stroke-miterlimit="10" points="-390.52,515 -435.077,437.5 -390.52,360 
	-301.402,360 -256.845,437.5 -301.402,515 "/>
<line fill="none" stroke="#EBEDEC" stroke-width="2" stroke-miterlimit="10" x1="-662.49" y1="185.754" x2="-654.255" y2="201.516"/>
<line fill="none" stroke="#EBEDEC" stroke-width="2" stroke-miterlimit="10" x1="-394.49" y1="184.754" x2="-386.255" y2="200.516"/>
<line fill="none" stroke="#EBEDEC" stroke-width="2" stroke-miterlimit="10" x1="-526.49" y1="102.754" x2="-518.255" y2="118.516"/>
<line fill="none" stroke="#EBEDEC" stroke-width="2" stroke-miterlimit="10" x1="-394.49" y1="24.754" x2="-386.255" y2="40.516"/>
<line fill="none" stroke="#EBEDEC" stroke-width="2" stroke-miterlimit="10" x1="-529.49" y1="-51.246" x2="-521.255" y2="-35.484"/>
<line fill="none" stroke="#EBEDEC" stroke-width="2" stroke-miterlimit="10" x1="-796.49" y1="-49.246" x2="-788.255" y2="-33.484"/>
<line fill="none" stroke="#EBEDEC" stroke-width="2" stroke-miterlimit="10" x1="-663.49" y1="24.754" x2="-655.255" y2="40.516"/>
<line fill="none" stroke="#EBEDEC" stroke-width="2" stroke-miterlimit="10" x1="-798.49" y1="101.754" x2="-790.255" y2="117.516"/>
<linearGradient id="SVGID_1_" gradientUnits="userSpaceOnUse" x1="-89.0771" y1="-75.5" x2="89.1553" y2="-75.5">
	<stop  offset="0" style="stop-color:#FF6C00"/>
	<stop  offset="0.0564" style="stop-color:#FF6E00"/>
	<stop  offset="0.5129" style="stop-color:#FC7902"/>
	<stop  offset="1" style="stop-color:#FB7D03"/>
</linearGradient>
<polygon fill="url(#SVGID_1_)" stroke="#4D1921" stroke-width="2" stroke-miterlimit="10" points="-44.52,2 -89.077,-75.5 
	-44.52,-153 44.598,-153 89.155,-75.5 44.598,2 "/>
<polygon fill="#1C1004" stroke="#4D1921" stroke-width="2" stroke-miterlimit="10" points="-44.52,157 -89.077,79.5 -44.52,2 
	44.598,2 89.155,79.5 44.598,157 "/>
<linearGradient id="SVGID_2_" gradientUnits="userSpaceOnUse" x1="-89.0771" y1="234.5" x2="89.1553" y2="234.5">
	<stop  offset="0" style="stop-color:#FF6C00"/>
	<stop  offset="0.0564" style="stop-color:#FF6E00"/>
	<stop  offset="0.5129" style="stop-color:#FC7902"/>
	<stop  offset="1" style="stop-color:#FB7D03"/>
</linearGradient>
<polygon fill="url(#SVGID_2_)" stroke="#4D1921" stroke-width="2" stroke-miterlimit="10" points="-44.52,312 -89.077,234.5 
	-44.52,157 44.598,157 89.155,234.5 44.598,312 "/>
<linearGradient id="SVGID_3_" gradientUnits="userSpaceOnUse" x1="44.9229" y1="1.5" x2="223.1553" y2="1.5">
	<stop  offset="0" style="stop-color:#FF6C00"/>
	<stop  offset="0.0564" style="stop-color:#FF6E00"/>
	<stop  offset="0.5129" style="stop-color:#FC7902"/>
	<stop  offset="1" style="stop-color:#FB7D03"/>
</linearGradient>
<polygon fill="url(#SVGID_3_)" stroke="#4D1921" stroke-width="2" stroke-miterlimit="10" points="89.48,79 44.923,1.5 89.48,-76 
	178.598,-76 223.155,1.5 178.598,79 "/>
<polygon fill="#1C1004" stroke="#4D1921" stroke-width="2" stroke-miterlimit="10" points="89.48,234 44.923,156.5 89.48,79 
	178.598,79 223.155,156.5 178.598,234 "/>
<linearGradient id="SVGID_4_" gradientUnits="userSpaceOnUse" x1="44.9229" y1="311.5" x2="223.1553" y2="311.5">
	<stop  offset="0" style="stop-color:#FF6C00"/>
	<stop  offset="0.0564" style="stop-color:#FF6E00"/>
	<stop  offset="0.5129" style="stop-color:#FC7902"/>
	<stop  offset="1" style="stop-color:#FB7D03"/>
</linearGradient>
<polygon fill="url(#SVGID_4_)" stroke="#4D1921" stroke-width="2" stroke-miterlimit="10" points="89.48,389 44.923,311.5 
	89.48,234 178.598,234 223.155,311.5 178.598,389 "/>
<polygon fill="#1C1004" stroke="#4D1921" stroke-width="2" stroke-miterlimit="10" points="223.48,1 178.923,-76.5 223.48,-154 
	312.598,-154 357.155,-76.5 312.598,1 "/>
<linearGradient id="SVGID_5_" gradientUnits="userSpaceOnUse" x1="178.9229" y1="78.5" x2="357.1553" y2="78.5">
	<stop  offset="0" style="stop-color:#FF6C00"/>
	<stop  offset="0.0564" style="stop-color:#FF6E00"/>
	<stop  offset="0.5129" style="stop-color:#FC7902"/>
	<stop  offset="1" style="stop-color:#FB7D03"/>
</linearGradient>
<polygon fill="url(#SVGID_5_)" stroke="#4D1921" stroke-width="2" stroke-miterlimit="10" points="223.48,156 178.923,78.5 
	223.48,1 312.598,1 357.155,78.5 312.598,156 "/>
<polygon fill="#1C1004" stroke="#4D1921" stroke-width="2" stroke-miterlimit="10" points="223.48,311 178.923,233.5 223.48,156 
	312.598,156 357.155,233.5 312.598,311 "/>
<polygon fill="#1C1004" stroke="#4D1921" stroke-width="2" stroke-miterlimit="10" points="357.48,78 312.923,0.5 357.48,-77 
	446.598,-77 491.155,0.5 446.598,78 "/>
<linearGradient id="SVGID_6_" gradientUnits="userSpaceOnUse" x1="312.9229" y1="155.5" x2="491.1553" y2="155.5">
	<stop  offset="0" style="stop-color:#FF6C00"/>
	<stop  offset="0.0564" style="stop-color:#FF6E00"/>
	<stop  offset="0.5129" style="stop-color:#FC7902"/>
	<stop  offset="1" style="stop-color:#FB7D03"/>
</linearGradient>
<polygon fill="url(#SVGID_6_)" stroke="#4D1921" stroke-width="2" stroke-miterlimit="10" points="357.48,233 312.923,155.5 
	357.48,78 446.598,78 491.155,155.5 446.598,233 "/>
<polygon fill="#1C1004" stroke="#4D1921" stroke-width="2" stroke-miterlimit="10" points="357.48,388 312.923,310.5 357.48,233 
	446.598,233 491.155,310.5 446.598,388 "/>
<polygon fill="#1C1004" stroke="#4D1921" stroke-width="2" stroke-miterlimit="10" points="491.48,155 446.923,77.5 491.48,0 
	580.598,0 625.155,77.5 580.598,155 "/>
<linearGradient id="SVGID_7_" gradientUnits="userSpaceOnUse" x1="446.9229" y1="232.5" x2="625.1553" y2="232.5">
	<stop  offset="0" style="stop-color:#FF6C00"/>
	<stop  offset="0.0564" style="stop-color:#FF6E00"/>
	<stop  offset="0.5129" style="stop-color:#FC7902"/>
	<stop  offset="1" style="stop-color:#FB7D03"/>
</linearGradient>
<polygon fill="url(#SVGID_7_)" stroke="#4D1921" stroke-width="2" stroke-miterlimit="10" points="491.48,310 446.923,232.5 
	491.48,155 580.598,155 625.155,232.5 580.598,310 "/>
<line fill="none" stroke="#FFFFFF" stroke-width="2" stroke-miterlimit="10" x1="219.51" y1="290.754" x2="227.745" y2="306.516"/>
<line fill="none" stroke="#FFFFFF" stroke-width="2" stroke-miterlimit="10" x1="487.51" y1="289.754" x2="495.745" y2="305.516"/>
<line fill="none" stroke="#FFFFFF" stroke-width="2" stroke-miterlimit="10" x1="355.51" y1="207.754" x2="363.745" y2="223.516"/>
<line fill="none" stroke="#FFFFFF" stroke-width="2" stroke-miterlimit="10" x1="487.51" y1="129.754" x2="495.745" y2="145.516"/>
<line fill="none" stroke="#FFFFFF" stroke-width="2" stroke-miterlimit="10" x1="352.51" y1="53.754" x2="360.745" y2="69.516"/>
<line fill="none" stroke="#FFFFFF" stroke-width="2" stroke-miterlimit="10" x1="85.51" y1="55.754" x2="93.745" y2="71.516"/>
<line fill="none" stroke="#FFFFFF" stroke-width="2" stroke-miterlimit="10" x1="218.51" y1="129.754" x2="226.745" y2="145.516"/>
<line fill="none" stroke="#FFFFFF" stroke-width="2" stroke-miterlimit="10" x1="83.51" y1="206.754" x2="91.745" y2="222.516"/>
<g>
</g>
<g>
</g>
<g>
</g>
<g>
</g>
<g>
</g>
<g>
</g>
<g>
</g>
<g>
</g>
<g>
</g>
<g>
</g>
<g>
</g>
<g>
</g>
<g>
</g>
<g>
</g>
<g>
</g>
</svg>
