<?xml version="1.0" encoding="utf-8"?>
<!-- Generator: Adobe Illustrator 16.0.3, SVG Export Plug-In . SVG Version: 6.00 Build 0)  -->
<!DOCTYPE svg PUBLIC "-//W3C//DTD SVG 1.1//EN" "http://www.w3.org/Graphics/SVG/1.1/DTD/svg11.dtd">
<svg version="1.1" id="Capa_1" xmlns="http://www.w3.org/2000/svg" xmlns:xlink="http://www.w3.org/1999/xlink" x="0px" y="0px"
	 width="268px" height="155px" viewBox="0 0 268 155" enable-background="new 0 0 268 155" xml:space="preserve">
<g>
	<polygon fill="#FFFFFF" stroke="#000000" stroke-miterlimit="10" points="-2678.629,-420.556 -2762.216,-370.012 
		-2847.601,-417.455 -2849.398,-515.444 -2765.812,-565.988 -2680.427,-518.544 	"/>
	<polygon fill="#FFFFFF" stroke="#000000" stroke-miterlimit="10" points="-2506.629,-424.556 -2590.216,-374.012 
		-2675.601,-421.455 -2677.398,-519.444 -2593.812,-569.988 -2508.427,-522.544 	"/>
	<polygon fill="#FFFFFF" stroke="#000000" stroke-miterlimit="10" points="-2595.629,-571.556 -2679.216,-521.012 
		-2764.601,-568.455 -2766.398,-666.444 -2682.812,-716.988 -2597.427,-669.544 	"/>
	<polygon fill="#FFFFFF" stroke="#000000" stroke-miterlimit="10" points="-2418.629,-276.556 -2502.216,-226.012 
		-2587.601,-273.455 -2589.398,-371.443 -2505.812,-421.988 -2420.427,-374.545 	"/>
	<polygon fill="#FFFFFF" stroke="#000000" stroke-miterlimit="10" points="-2423.629,-575.556 -2507.216,-525.012 
		-2592.601,-572.455 -2594.398,-670.443 -2510.812,-720.988 -2425.427,-673.545 	"/>
	<polygon fill="#FFFFFF" stroke="#000000" stroke-miterlimit="10" points="-2334.629,-427.556 -2418.216,-377.012 
		-2503.601,-424.455 -2505.398,-522.443 -2421.812,-572.988 -2336.427,-525.545 	"/>
	<polygon fill="#FFFFFF" stroke="#000000" stroke-miterlimit="10" points="-2589.629,-273.556 -2673.216,-223.012 
		-2758.601,-270.455 -2760.398,-368.443 -2676.812,-418.988 -2591.427,-371.545 	"/>
</g>
<g>
	<polygon fill="#FFFFFF" stroke="#000000" stroke-miterlimit="10" points="-1836.432,-312.5 -1880.851,-389 -1836.432,-465.5 
		-1747.596,-465.5 -1703.177,-389 -1747.596,-312.5 	"/>
	<polygon fill="#FFFFFF" stroke="#000000" stroke-miterlimit="10" points="-1701.432,-389.5 -1745.851,-466 -1701.432,-542.5 
		-1612.596,-542.5 -1568.177,-466 -1612.596,-389.5 	"/>
	<polygon fill="#FFFFFF" stroke="#000000" stroke-miterlimit="10" points="-1701.432,-234.5 -1745.851,-311 -1701.432,-387.5 
		-1612.596,-387.5 -1568.177,-311 -1612.596,-234.5 	"/>
	<polygon fill="#FFFFFF" stroke="#000000" stroke-miterlimit="10" points="-1566.432,-311.5 -1610.851,-388 -1566.432,-464.5 
		-1477.596,-464.5 -1433.177,-388 -1477.596,-311.5 	"/>
	<polygon fill="#FFFFFF" stroke="#000000" stroke-miterlimit="10" points="-1566.432,-466.5 -1610.851,-543 -1566.432,-619.5 
		-1477.596,-619.5 -1433.177,-543 -1477.596,-466.5 	"/>
	<polygon fill="#FFFFFF" stroke="#000000" stroke-miterlimit="10" points="-1701.432,-543.5 -1745.851,-620 -1701.432,-696.5 
		-1612.596,-696.5 -1568.177,-620 -1612.596,-543.5 	"/>
	<polygon fill="#FFFFFF" stroke="#000000" stroke-miterlimit="10" points="-1836.432,-466.5 -1880.851,-543 -1836.432,-619.5 
		-1747.596,-619.5 -1703.177,-543 -1747.596,-466.5 	"/>
</g>
<polygon fill="#00ACB3" stroke="#262626" stroke-width="2" stroke-miterlimit="10" points="-1714.932,210 -1759.351,133.5 
	-1714.932,57 -1626.096,57 -1581.677,133.5 -1626.096,210 "/>
<polygon fill="#007176" stroke="#262626" stroke-width="2" stroke-miterlimit="10" points="-1581.932,133 -1626.351,56.5 
	-1581.932,-20 -1493.096,-20 -1448.677,56.5 -1493.096,133 "/>
<polygon fill="#007176" stroke="#262626" stroke-width="2" stroke-miterlimit="10" points="-1581.932,-20 -1626.351,-96.5 
	-1581.932,-173 -1493.096,-173 -1448.677,-96.5 -1493.096,-20 "/>
<polygon fill="#00ACB3" stroke="#262626" stroke-width="2" stroke-miterlimit="10" points="-1714.932,-97 -1759.351,-173.5 
	-1714.932,-250 -1626.096,-250 -1581.677,-173.5 -1626.096,-97 "/>
<polygon fill="#007176" stroke="#262626" stroke-width="2" stroke-miterlimit="10" points="-1847.932,-20 -1892.351,-96.5 
	-1847.932,-173 -1759.096,-173 -1714.677,-96.5 -1759.096,-20 "/>
<polygon fill="#00ACB3" stroke="#262626" stroke-width="2" stroke-miterlimit="10" points="-1714.932,57 -1759.351,-19.5 
	-1714.932,-96 -1626.096,-96 -1581.677,-19.5 -1626.096,57 "/>
<polygon fill="#007176" stroke="#262626" stroke-width="2" stroke-miterlimit="10" points="-1847.932,134 -1892.351,57 
	-1847.932,-20 -1759.096,-20 -1714.677,57 -1759.096,134 "/>
<line fill="#F2F4F3" stroke="#EBEDEC" stroke-width="0.75" stroke-miterlimit="10" x1="-1718.529" y1="189.754" x2="-1710.294" y2="205.516"/>
<line fill="#F2F4F3" stroke="#EBEDEC" stroke-width="0.75" stroke-miterlimit="10" x1="-1585.529" y1="265.754" x2="-1577.294" y2="281.516"/>
<line fill="#F2F4F3" stroke="#EBEDEC" stroke-width="0.75" stroke-miterlimit="10" x1="-1586.029" y1="113.179" x2="-1577.794" y2="128.94"/>
<line fill="#F2F4F3" stroke="#EBEDEC" stroke-width="0.75" stroke-miterlimit="10" x1="-1719.029" y1="37.179" x2="-1710.794" y2="52.94"/>
<line fill="#F2F4F3" stroke="#EBEDEC" stroke-width="0.75" stroke-miterlimit="10" x1="-1719.029" y1="-120.821" x2="-1710.794" y2="-105.06"/>
<polygon fill="#00ACB3" stroke="#262626" stroke-width="2" stroke-miterlimit="10" points="-1980.432,210 -2024.851,133.5 
	-1980.432,57 -1891.596,57 -1847.177,133.5 -1891.596,210 "/>
<polygon fill="#007176" stroke="#262626" stroke-width="2" stroke-miterlimit="10" points="-1847.932,133 -1892.351,56.5 
	-1847.932,-20 -1759.096,-20 -1714.677,56.5 -1759.096,133 "/>
<polygon fill="#00ACB3" stroke="#262626" stroke-width="2" stroke-miterlimit="10" points="-1980.432,-97 -2024.851,-173.5 
	-1980.432,-250 -1891.596,-250 -1847.177,-173.5 -1891.596,-97 "/>
<polygon fill="#007176" stroke="#262626" stroke-width="2" stroke-miterlimit="10" points="-2113.432,-20 -2157.851,-96.5 
	-2113.432,-173 -2024.596,-173 -1980.177,-96.5 -2024.596,-20 "/>
<polygon fill="#00ACB3" stroke="#262626" stroke-width="2" stroke-miterlimit="10" points="-1980.432,57 -2024.851,-19.5 
	-1980.432,-96 -1891.596,-96 -1847.177,-19.5 -1891.596,57 "/>
<polygon fill="#007176" stroke="#262626" stroke-width="2" stroke-miterlimit="10" points="-2113.432,134 -2157.851,57 
	-2113.432,-20 -2024.596,-20 -1980.177,57 -2024.596,134 "/>
<line fill="#F2F4F3" stroke="#EBEDEC" stroke-width="0.75" stroke-miterlimit="10" x1="-1851.529" y1="112.754" x2="-1843.294" y2="128.516"/>
<line fill="#F2F4F3" stroke="#EBEDEC" stroke-width="0.75" stroke-miterlimit="10" x1="-1984.529" y1="36.754" x2="-1976.294" y2="52.516"/>
<line fill="#F2F4F3" stroke="#EBEDEC" stroke-width="0.75" stroke-miterlimit="10" x1="-1984.529" y1="-121.246" x2="-1976.294" y2="-105.484"/>
<polygon fill="#00ACB3" stroke="#262626" stroke-width="2" stroke-miterlimit="10" points="-1714.432,517 -1758.851,440.5 
	-1714.432,364 -1625.596,364 -1581.177,440.5 -1625.596,517 "/>
<polygon fill="#007176" stroke="#262626" stroke-width="2" stroke-miterlimit="10" points="-1581.432,440 -1625.851,363.5 
	-1581.432,287 -1492.596,287 -1448.177,363.5 -1492.596,440 "/>
<polygon fill="#007176" stroke="#262626" stroke-width="2" stroke-miterlimit="10" points="-1581.432,287 -1625.851,210.5 
	-1581.432,134 -1492.596,134 -1448.177,210.5 -1492.596,287 "/>
<polygon fill="#00ACB3" stroke="#262626" stroke-width="2" stroke-miterlimit="10" points="-1714.932,210 -1759.351,133.5 
	-1714.932,57 -1626.096,57 -1581.677,133.5 -1626.096,210 "/>
<polygon fill="#007176" stroke="#262626" stroke-width="2" stroke-miterlimit="10" points="-1847.432,287 -1891.851,210.5 
	-1847.432,134 -1758.596,134 -1714.177,210.5 -1758.596,287 "/>
<polygon fill="#00ACB3" stroke="#262626" stroke-width="2" stroke-miterlimit="10" points="-1980.432,364 -2024.851,287.5 
	-1980.432,211 -1891.596,211 -1847.177,287.5 -1891.596,364 "/>
<polygon fill="#007176" stroke="#262626" stroke-width="2" stroke-miterlimit="10" points="-2113.432,286 -2157.851,209.5 
	-2113.432,133 -2024.596,133 -1980.177,209.5 -2024.596,286 "/>
<polygon fill="#007176" stroke="#262626" stroke-width="2" stroke-miterlimit="10" points="-1980.432,517 -2024.851,440.5 
	-1980.432,364 -1891.596,364 -1847.177,440.5 -1891.596,517 "/>
<polygon fill="#00ACB3" stroke="#262626" stroke-width="2" stroke-miterlimit="10" points="-1714.432,364 -1758.851,287.5 
	-1714.432,211 -1625.596,211 -1581.177,287.5 -1625.596,364 "/>
<polygon fill="#007176" stroke="#262626" stroke-width="2" stroke-miterlimit="10" points="-1847.432,441 -1891.851,364 
	-1847.432,287 -1758.596,287 -1714.177,364 -1758.596,441 "/>
<line fill="#F2F4F3" stroke="#EBEDEC" stroke-width="0.75" stroke-miterlimit="10" x1="-1585.529" y1="419.754" x2="-1577.294" y2="435.516"/>
<line fill="#F2F4F3" stroke="#EBEDEC" stroke-width="0.75" stroke-miterlimit="10" x1="-1718.529" y1="343.754" x2="-1710.294" y2="359.516"/>
<line fill="#F2F4F3" stroke="#EBEDEC" stroke-width="0.75" stroke-miterlimit="10" x1="-1718.529" y1="185.754" x2="-1710.294" y2="201.516"/>
<g>
	<polygon fill="#00ACB3" stroke="#262626" stroke-width="2" stroke-miterlimit="10" points="-1188.559,-25 -1233.116,-102.5 
		-1188.559,-180 -1099.441,-180 -1054.884,-102.5 -1099.441,-25 	"/>
	<polygon fill="#007176" stroke="#262626" stroke-width="2" stroke-miterlimit="10" points="-1188.559,130 -1233.116,52.5 
		-1188.559,-25 -1099.441,-25 -1054.884,52.5 -1099.441,130 	"/>
	<polygon fill="#00ACB3" stroke="#262626" stroke-width="2" stroke-miterlimit="10" points="-1188.559,285 -1233.116,207.5 
		-1188.559,130 -1099.441,130 -1054.884,207.5 -1099.441,285 	"/>
	<polygon fill="#007176" stroke="#262626" stroke-width="2" stroke-miterlimit="10" points="-1188.559,440 -1233.116,362.5 
		-1188.559,285 -1099.441,285 -1054.884,362.5 -1099.441,440 	"/>
	<polygon fill="#00ACB3" stroke="#262626" stroke-width="2" stroke-miterlimit="10" points="-1054.559,52 -1099.116,-25.5 
		-1054.559,-103 -965.441,-103 -920.884,-25.5 -965.441,52 	"/>
	<polygon fill="#007176" stroke="#262626" stroke-width="2" stroke-miterlimit="10" points="-1054.559,207 -1099.116,129.5 
		-1054.559,52 -965.441,52 -920.884,129.5 -965.441,207 	"/>
	<polygon fill="#00ACB3" stroke="#262626" stroke-width="2" stroke-miterlimit="10" points="-1054.559,362 -1099.116,284.5 
		-1054.559,207 -965.441,207 -920.884,284.5 -965.441,362 	"/>
	<polygon fill="#007176" stroke="#262626" stroke-width="2" stroke-miterlimit="10" points="-1054.559,517 -1099.116,439.5 
		-1054.559,362 -965.441,362 -920.884,439.5 -965.441,517 	"/>
	<polygon fill="#007176" stroke="#262626" stroke-width="2" stroke-miterlimit="10" points="-920.559,-26 -965.116,-103.5 
		-920.559,-181 -831.441,-181 -786.884,-103.5 -831.441,-26 	"/>
	<polygon fill="#00ACB3" stroke="#262626" stroke-width="2" stroke-miterlimit="10" points="-920.559,129 -965.116,51.5 
		-920.559,-26 -831.441,-26 -786.884,51.5 -831.441,129 	"/>
	<polygon fill="#007176" stroke="#262626" stroke-width="2" stroke-miterlimit="10" points="-920.559,284 -965.116,206.5 
		-920.559,129 -831.441,129 -786.884,206.5 -831.441,284 	"/>
	<polygon fill="#00ACB3" stroke="#262626" stroke-width="2" stroke-miterlimit="10" points="-920.559,439 -965.116,361.5 
		-920.559,284 -831.441,284 -786.884,361.5 -831.441,439 	"/>
	<polygon fill="#007176" stroke="#262626" stroke-width="2" stroke-miterlimit="10" points="-786.559,51 -831.116,-26.5 
		-786.559,-104 -697.441,-104 -652.884,-26.5 -697.441,51 	"/>
	<polygon fill="#00ACB3" stroke="#262626" stroke-width="2" stroke-miterlimit="10" points="-786.559,206 -831.116,128.5 
		-786.559,51 -697.441,51 -652.884,128.5 -697.441,206 	"/>
	<polygon fill="#007176" stroke="#262626" stroke-width="2" stroke-miterlimit="10" points="-786.559,361 -831.116,283.5 
		-786.559,206 -697.441,206 -652.884,283.5 -697.441,361 	"/>
	<polygon fill="#00ACB3" stroke="#262626" stroke-width="2" stroke-miterlimit="10" points="-786.559,516 -831.116,438.5 
		-786.559,361 -697.441,361 -652.884,438.5 -697.441,516 	"/>
	<polygon fill="#007176" stroke="#262626" stroke-width="2" stroke-miterlimit="10" points="-652.559,128 -697.116,50.5 
		-652.559,-27 -563.441,-27 -518.884,50.5 -563.441,128 	"/>
	<polygon fill="#00ACB3" stroke="#262626" stroke-width="2" stroke-miterlimit="10" points="-652.559,283 -697.116,205.5 
		-652.559,128 -563.441,128 -518.884,205.5 -563.441,283 	"/>
	<polygon fill="#007176" stroke="#262626" stroke-width="2" stroke-miterlimit="10" points="-652.559,438 -697.116,360.5 
		-652.559,283 -563.441,283 -518.884,360.5 -563.441,438 	"/>
	<polygon fill="#00ACB3" stroke="#262626" stroke-width="2" stroke-miterlimit="10" points="-652.559,593 -697.116,515.5 
		-652.559,438 -563.441,438 -518.884,515.5 -563.441,593 	"/>
</g>
<g>
	<polygon fill="#00ACB3" stroke="#262626" stroke-width="2" stroke-miterlimit="10" points="-312.559,2 -357.116,-75.5 
		-312.559,-153 -223.441,-153 -178.884,-75.5 -223.441,2 	"/>
	<polygon fill="#00ACB3" stroke="#262626" stroke-width="2" stroke-miterlimit="10" points="-312.559,157 -357.116,79.5 -312.559,2 
		-223.441,2 -178.884,79.5 -223.441,157 	"/>
	<polygon fill="#00ACB3" stroke="#262626" stroke-width="2" stroke-miterlimit="10" points="-312.559,312 -357.116,234.5 
		-312.559,157 -223.441,157 -178.884,234.5 -223.441,312 	"/>
	<polygon fill="#00ACB3" stroke="#262626" stroke-width="2" stroke-miterlimit="10" points="-312.559,467 -357.116,389.5 
		-312.559,312 -223.441,312 -178.884,389.5 -223.441,467 	"/>
	<polygon fill="#007176" stroke="#262626" stroke-width="2" stroke-miterlimit="10" points="-178.559,79 -223.116,1.5 -178.559,-76 
		-89.441,-76 -44.884,1.5 -89.441,79 	"/>
	<polygon fill="#007176" stroke="#262626" stroke-width="2" stroke-miterlimit="10" points="-178.559,234 -223.116,156.5 
		-178.559,79 -89.441,79 -44.884,156.5 -89.441,234 	"/>
	<polygon fill="#007176" stroke="#262626" stroke-width="2" stroke-miterlimit="10" points="-178.559,389 -223.116,311.5 
		-178.559,234 -89.441,234 -44.884,311.5 -89.441,389 	"/>
	<polygon fill="#007176" stroke="#262626" stroke-width="2" stroke-miterlimit="10" points="-178.559,544 -223.116,466.5 
		-178.559,389 -89.441,389 -44.884,466.5 -89.441,544 	"/>
	<polygon fill="#00ACB3" stroke="#262626" stroke-width="2" stroke-miterlimit="10" points="-44.559,1 -89.116,-76.5 -44.559,-154 
		44.559,-154 89.116,-76.5 44.559,1 	"/>
	<polygon fill="#00ACB3" stroke="#262626" stroke-width="2" stroke-miterlimit="10" points="-44.559,156 -89.116,78.5 -44.559,1 
		44.559,1 89.116,78.5 44.559,156 	"/>
	<polygon fill="#00ACB3" stroke="#262626" stroke-width="2" stroke-miterlimit="10" points="-44.559,311 -89.116,233.5 -44.559,156 
		44.559,156 89.116,233.5 44.559,311 	"/>
	<polygon fill="#00ACB3" stroke="#262626" stroke-width="2" stroke-miterlimit="10" points="-44.559,466 -89.116,388.5 -44.559,311 
		44.559,311 89.116,388.5 44.559,466 	"/>
	<polygon fill="#007176" stroke="#262626" stroke-width="2" stroke-miterlimit="10" points="89.441,78 44.884,0.5 89.441,-77 
		178.559,-77 223.116,0.5 178.559,78 	"/>
	<polygon fill="#007176" stroke="#262626" stroke-width="2" stroke-miterlimit="10" points="89.441,233 44.884,155.5 89.441,78 
		178.559,78 223.116,155.5 178.559,233 	"/>
	<polygon fill="#007176" stroke="#262626" stroke-width="2" stroke-miterlimit="10" points="89.441,388 44.884,310.5 89.441,233 
		178.559,233 223.116,310.5 178.559,388 	"/>
	<polygon fill="#007176" stroke="#262626" stroke-width="2" stroke-miterlimit="10" points="89.441,543 44.884,465.5 89.441,388 
		178.559,388 223.116,465.5 178.559,543 	"/>
	<polygon fill="#00ACB3" stroke="#262626" stroke-width="2" stroke-miterlimit="10" points="223.441,155 178.884,77.5 223.441,0 
		312.559,0 357.116,77.5 312.559,155 	"/>
	<polygon fill="#00ACB3" stroke="#262626" stroke-width="2" stroke-miterlimit="10" points="223.441,310 178.884,232.5 223.441,155 
		312.559,155 357.116,232.5 312.559,310 	"/>
	<polygon fill="#00ACB3" stroke="#262626" stroke-width="2" stroke-miterlimit="10" points="223.441,465 178.884,387.5 223.441,310 
		312.559,310 357.116,387.5 312.559,465 	"/>
	<polygon fill="#00ACB3" stroke="#262626" stroke-width="2" stroke-miterlimit="10" points="223.441,620 178.884,542.5 223.441,465 
		312.559,465 357.116,542.5 312.559,620 	"/>
</g>
<g>
</g>
<g>
</g>
<g>
</g>
<g>
</g>
<g>
</g>
<g>
</g>
<g>
</g>
<g>
</g>
<g>
</g>
<g>
</g>
<g>
</g>
<g>
</g>
<g>
</g>
<g>
</g>
<g>
</g>
</svg>
