<?xml version="1.0" encoding="utf-8"?>
<!-- Generator: Adobe Illustrator 16.0.3, SVG Export Plug-In . SVG Version: 6.00 Build 0)  -->
<!DOCTYPE svg PUBLIC "-//W3C//DTD SVG 1.1//EN" "http://www.w3.org/Graphics/SVG/1.1/DTD/svg11.dtd">
<svg version="1.1" id="Capa_1" xmlns="http://www.w3.org/2000/svg" xmlns:xlink="http://www.w3.org/1999/xlink" x="0px" y="0px"
	 width="536px" height="310px" viewBox="0 0 536 310" enable-background="new 0 0 536 310" xml:space="preserve">
<g>
	<polygon fill="#FFFFFF" stroke="#000000" stroke-miterlimit="10" points="-1534.629,-394.556 -1618.216,-344.012 
		-1703.601,-391.455 -1705.398,-489.444 -1621.812,-539.988 -1536.427,-492.544 	"/>
	<polygon fill="#FFFFFF" stroke="#000000" stroke-miterlimit="10" points="-1362.629,-398.556 -1446.216,-348.012 
		-1531.601,-395.455 -1533.398,-493.444 -1449.812,-543.988 -1364.427,-496.544 	"/>
	<polygon fill="#FFFFFF" stroke="#000000" stroke-miterlimit="10" points="-1451.629,-545.556 -1535.216,-495.012 
		-1620.601,-542.455 -1622.398,-640.444 -1538.812,-690.988 -1453.427,-643.544 	"/>
	<polygon fill="#FFFFFF" stroke="#000000" stroke-miterlimit="10" points="-1274.629,-250.556 -1358.216,-200.012 
		-1443.601,-247.455 -1445.398,-345.443 -1361.812,-395.988 -1276.427,-348.545 	"/>
	<polygon fill="#FFFFFF" stroke="#000000" stroke-miterlimit="10" points="-1279.629,-549.556 -1363.216,-499.012 
		-1448.601,-546.455 -1450.398,-644.443 -1366.812,-694.988 -1281.427,-647.545 	"/>
	<polygon fill="#FFFFFF" stroke="#000000" stroke-miterlimit="10" points="-1190.629,-401.556 -1274.216,-351.012 
		-1359.601,-398.455 -1361.398,-496.443 -1277.812,-546.988 -1192.427,-499.545 	"/>
	<polygon fill="#FFFFFF" stroke="#000000" stroke-miterlimit="10" points="-1445.629,-247.556 -1529.216,-197.012 
		-1614.601,-244.455 -1616.398,-342.443 -1532.812,-392.988 -1447.427,-345.545 	"/>
</g>
<g>
	<polygon fill="#FFFFFF" stroke="#000000" stroke-miterlimit="10" points="-692.432,-286.5 -736.851,-363 -692.432,-439.5 
		-603.596,-439.5 -559.177,-363 -603.596,-286.5 	"/>
	<polygon fill="#FFFFFF" stroke="#000000" stroke-miterlimit="10" points="-557.432,-363.5 -601.851,-440 -557.432,-516.5 
		-468.596,-516.5 -424.177,-440 -468.596,-363.5 	"/>
	<polygon fill="#FFFFFF" stroke="#000000" stroke-miterlimit="10" points="-557.432,-208.5 -601.851,-285 -557.432,-361.5 
		-468.596,-361.5 -424.177,-285 -468.596,-208.5 	"/>
	<polygon fill="#FFFFFF" stroke="#000000" stroke-miterlimit="10" points="-422.432,-285.5 -466.851,-362 -422.432,-438.5 
		-333.596,-438.5 -289.177,-362 -333.596,-285.5 	"/>
	<polygon fill="#FFFFFF" stroke="#000000" stroke-miterlimit="10" points="-422.432,-440.5 -466.851,-517 -422.432,-593.5 
		-333.596,-593.5 -289.177,-517 -333.596,-440.5 	"/>
	<polygon fill="#FFFFFF" stroke="#000000" stroke-miterlimit="10" points="-557.432,-517.5 -601.851,-594 -557.432,-670.5 
		-468.596,-670.5 -424.177,-594 -468.596,-517.5 	"/>
	<polygon fill="#FFFFFF" stroke="#000000" stroke-miterlimit="10" points="-692.432,-440.5 -736.851,-517 -692.432,-593.5 
		-603.596,-593.5 -559.177,-517 -603.596,-440.5 	"/>
</g>
<polygon fill="#00ACB3" stroke="#262626" stroke-width="2" stroke-miterlimit="10" points="-570.932,236 -615.351,159.5 
	-570.932,83 -482.096,83 -437.677,159.5 -482.096,236 "/>
<polygon fill="#007176" stroke="#262626" stroke-width="2" stroke-miterlimit="10" points="-437.932,159 -482.351,82.5 -437.932,6 
	-349.096,6 -304.677,82.5 -349.096,159 "/>
<polygon fill="#007176" stroke="#262626" stroke-width="2" stroke-miterlimit="10" points="-437.932,6 -482.351,-70.5 
	-437.932,-147 -349.096,-147 -304.677,-70.5 -349.096,6 "/>
<polygon fill="#00ACB3" stroke="#262626" stroke-width="2" stroke-miterlimit="10" points="-570.932,-71 -615.351,-147.5 
	-570.932,-224 -482.096,-224 -437.677,-147.5 -482.096,-71 "/>
<polygon fill="#007176" stroke="#262626" stroke-width="2" stroke-miterlimit="10" points="-703.932,6 -748.351,-70.5 
	-703.932,-147 -615.096,-147 -570.677,-70.5 -615.096,6 "/>
<polygon fill="#00ACB3" stroke="#262626" stroke-width="2" stroke-miterlimit="10" points="-570.932,83 -615.351,6.5 -570.932,-70 
	-482.096,-70 -437.677,6.5 -482.096,83 "/>
<polygon fill="#007176" stroke="#262626" stroke-width="2" stroke-miterlimit="10" points="-703.932,160 -748.351,83 -703.932,6 
	-615.096,6 -570.677,83 -615.096,160 "/>
<line fill="#F2F4F3" stroke="#EBEDEC" stroke-width="0.75" stroke-miterlimit="10" x1="-574.529" y1="215.754" x2="-566.294" y2="231.516"/>
<line fill="#F2F4F3" stroke="#EBEDEC" stroke-width="0.75" stroke-miterlimit="10" x1="-441.529" y1="291.754" x2="-433.294" y2="307.516"/>
<line fill="#F2F4F3" stroke="#EBEDEC" stroke-width="0.75" stroke-miterlimit="10" x1="-442.029" y1="139.179" x2="-433.794" y2="154.94"/>
<line fill="#F2F4F3" stroke="#EBEDEC" stroke-width="0.75" stroke-miterlimit="10" x1="-575.029" y1="63.179" x2="-566.794" y2="78.94"/>
<line fill="#F2F4F3" stroke="#EBEDEC" stroke-width="0.75" stroke-miterlimit="10" x1="-575.029" y1="-94.821" x2="-566.794" y2="-79.06"/>
<polygon fill="#00ACB3" stroke="#262626" stroke-width="2" stroke-miterlimit="10" points="-836.432,236 -880.851,159.5 
	-836.432,83 -747.596,83 -703.177,159.5 -747.596,236 "/>
<polygon fill="#007176" stroke="#262626" stroke-width="2" stroke-miterlimit="10" points="-703.932,159 -748.351,82.5 -703.932,6 
	-615.096,6 -570.677,82.5 -615.096,159 "/>
<polygon fill="#00ACB3" stroke="#262626" stroke-width="2" stroke-miterlimit="10" points="-836.432,-71 -880.851,-147.5 
	-836.432,-224 -747.596,-224 -703.177,-147.5 -747.596,-71 "/>
<polygon fill="#007176" stroke="#262626" stroke-width="2" stroke-miterlimit="10" points="-969.432,6 -1013.851,-70.5 
	-969.432,-147 -880.596,-147 -836.177,-70.5 -880.596,6 "/>
<polygon fill="#00ACB3" stroke="#262626" stroke-width="2" stroke-miterlimit="10" points="-836.432,83 -880.851,6.5 -836.432,-70 
	-747.596,-70 -703.177,6.5 -747.596,83 "/>
<polygon fill="#007176" stroke="#262626" stroke-width="2" stroke-miterlimit="10" points="-969.432,160 -1013.851,83 -969.432,6 
	-880.596,6 -836.177,83 -880.596,160 "/>
<line fill="#F2F4F3" stroke="#EBEDEC" stroke-width="0.75" stroke-miterlimit="10" x1="-707.529" y1="138.754" x2="-699.294" y2="154.516"/>
<line fill="#F2F4F3" stroke="#EBEDEC" stroke-width="0.75" stroke-miterlimit="10" x1="-840.529" y1="62.754" x2="-832.294" y2="78.516"/>
<line fill="#F2F4F3" stroke="#EBEDEC" stroke-width="0.75" stroke-miterlimit="10" x1="-840.529" y1="-95.246" x2="-832.294" y2="-79.484"/>
<polygon fill="#00ACB3" stroke="#262626" stroke-width="2" stroke-miterlimit="10" points="-570.432,543 -614.851,466.5 
	-570.432,390 -481.596,390 -437.177,466.5 -481.596,543 "/>
<polygon fill="#007176" stroke="#262626" stroke-width="2" stroke-miterlimit="10" points="-437.432,466 -481.851,389.5 
	-437.432,313 -348.596,313 -304.177,389.5 -348.596,466 "/>
<polygon fill="#007176" stroke="#262626" stroke-width="2" stroke-miterlimit="10" points="-437.432,313 -481.851,236.5 
	-437.432,160 -348.596,160 -304.177,236.5 -348.596,313 "/>
<polygon fill="#00ACB3" stroke="#262626" stroke-width="2" stroke-miterlimit="10" points="-570.932,236 -615.351,159.5 
	-570.932,83 -482.096,83 -437.677,159.5 -482.096,236 "/>
<polygon fill="#007176" stroke="#262626" stroke-width="2" stroke-miterlimit="10" points="-703.432,313 -747.851,236.5 
	-703.432,160 -614.596,160 -570.177,236.5 -614.596,313 "/>
<polygon fill="#00ACB3" stroke="#262626" stroke-width="2" stroke-miterlimit="10" points="-836.432,390 -880.851,313.5 
	-836.432,237 -747.596,237 -703.177,313.5 -747.596,390 "/>
<polygon fill="#007176" stroke="#262626" stroke-width="2" stroke-miterlimit="10" points="-969.432,312 -1013.851,235.5 
	-969.432,159 -880.596,159 -836.177,235.5 -880.596,312 "/>
<polygon fill="#007176" stroke="#262626" stroke-width="2" stroke-miterlimit="10" points="-836.432,543 -880.851,466.5 
	-836.432,390 -747.596,390 -703.177,466.5 -747.596,543 "/>
<polygon fill="#00ACB3" stroke="#262626" stroke-width="2" stroke-miterlimit="10" points="-570.432,390 -614.851,313.5 
	-570.432,237 -481.596,237 -437.177,313.5 -481.596,390 "/>
<polygon fill="#007176" stroke="#262626" stroke-width="2" stroke-miterlimit="10" points="-703.432,467 -747.851,390 -703.432,313 
	-614.596,313 -570.177,390 -614.596,467 "/>
<line fill="#F2F4F3" stroke="#EBEDEC" stroke-width="0.75" stroke-miterlimit="10" x1="-441.529" y1="445.754" x2="-433.294" y2="461.516"/>
<line fill="#F2F4F3" stroke="#EBEDEC" stroke-width="0.75" stroke-miterlimit="10" x1="-574.529" y1="369.754" x2="-566.294" y2="385.516"/>
<g>
	<polygon fill="#00ACB3" stroke="#262626" stroke-width="2" stroke-miterlimit="10" points="-44.559,1 -89.116,-76.5 -44.559,-154 
		44.559,-154 89.116,-76.5 44.559,1 	"/>
	<polygon fill="#007176" stroke="#262626" stroke-width="2" stroke-miterlimit="10" points="-44.559,156 -89.116,78.5 -44.559,1 
		44.559,1 89.116,78.5 44.559,156 	"/>
	<polygon fill="#00ACB3" stroke="#262626" stroke-width="2" stroke-miterlimit="10" points="-44.559,311 -89.116,233.5 -44.559,156 
		44.559,156 89.116,233.5 44.559,311 	"/>
	<polygon fill="#007176" stroke="#262626" stroke-width="2" stroke-miterlimit="10" points="-44.559,466 -89.116,388.5 -44.559,311 
		44.559,311 89.116,388.5 44.559,466 	"/>
	<polygon fill="#00ACB3" stroke="#262626" stroke-width="2" stroke-miterlimit="10" points="89.441,78 44.884,0.5 89.441,-77 
		178.559,-77 223.116,0.5 178.559,78 	"/>
	<polygon fill="#007176" stroke="#262626" stroke-width="2" stroke-miterlimit="10" points="89.441,233 44.884,155.5 89.441,78 
		178.559,78 223.116,155.5 178.559,233 	"/>
	<polygon fill="#00ACB3" stroke="#262626" stroke-width="2" stroke-miterlimit="10" points="89.441,388 44.884,310.5 89.441,233 
		178.559,233 223.116,310.5 178.559,388 	"/>
	<polygon fill="#007176" stroke="#262626" stroke-width="2" stroke-miterlimit="10" points="89.441,543 44.884,465.5 89.441,388 
		178.559,388 223.116,465.5 178.559,543 	"/>
	<polygon fill="#007176" stroke="#262626" stroke-width="2" stroke-miterlimit="10" points="223.441,0 178.884,-77.5 223.441,-155 
		312.559,-155 357.116,-77.5 312.559,0 	"/>
	<polygon fill="#00ACB3" stroke="#262626" stroke-width="2" stroke-miterlimit="10" points="223.441,155 178.884,77.5 223.441,0 
		312.559,0 357.116,77.5 312.559,155 	"/>
	<polygon fill="#007176" stroke="#262626" stroke-width="2" stroke-miterlimit="10" points="223.441,310 178.884,232.5 223.441,155 
		312.559,155 357.116,232.5 312.559,310 	"/>
	<polygon fill="#00ACB3" stroke="#262626" stroke-width="2" stroke-miterlimit="10" points="223.441,465 178.884,387.5 223.441,310 
		312.559,310 357.116,387.5 312.559,465 	"/>
	<polygon fill="#007176" stroke="#262626" stroke-width="2" stroke-miterlimit="10" points="357.441,77 312.884,-0.5 357.441,-78 
		446.559,-78 491.116,-0.5 446.559,77 	"/>
	<polygon fill="#00ACB3" stroke="#262626" stroke-width="2" stroke-miterlimit="10" points="357.441,232 312.884,154.5 357.441,77 
		446.559,77 491.116,154.5 446.559,232 	"/>
	<polygon fill="#007176" stroke="#262626" stroke-width="2" stroke-miterlimit="10" points="357.441,387 312.884,309.5 357.441,232 
		446.559,232 491.116,309.5 446.559,387 	"/>
	<polygon fill="#00ACB3" stroke="#262626" stroke-width="2" stroke-miterlimit="10" points="357.441,542 312.884,464.5 357.441,387 
		446.559,387 491.116,464.5 446.559,542 	"/>
	<polygon fill="#007176" stroke="#262626" stroke-width="2" stroke-miterlimit="10" points="491.441,154 446.884,76.5 491.441,-1 
		580.559,-1 625.116,76.5 580.559,154 	"/>
	<polygon fill="#00ACB3" stroke="#262626" stroke-width="2" stroke-miterlimit="10" points="491.441,309 446.884,231.5 491.441,154 
		580.559,154 625.116,231.5 580.559,309 	"/>
	<polygon fill="#007176" stroke="#262626" stroke-width="2" stroke-miterlimit="10" points="491.441,464 446.884,386.5 491.441,309 
		580.559,309 625.116,386.5 580.559,464 	"/>
	<polygon fill="#00ACB3" stroke="#262626" stroke-width="2" stroke-miterlimit="10" points="491.441,619 446.884,541.5 491.441,464 
		580.559,464 625.116,541.5 580.559,619 	"/>
</g>
<g>
	<polygon fill="#00ACB3" stroke="#262626" stroke-width="2" stroke-miterlimit="10" points="831.441,28 786.884,-49.5 831.441,-127 
		920.559,-127 965.116,-49.5 920.559,28 	"/>
	<polygon fill="#00ACB3" stroke="#262626" stroke-width="2" stroke-miterlimit="10" points="831.441,183 786.884,105.5 831.441,28 
		920.559,28 965.116,105.5 920.559,183 	"/>
	<polygon fill="#00ACB3" stroke="#262626" stroke-width="2" stroke-miterlimit="10" points="831.441,338 786.884,260.5 831.441,183 
		920.559,183 965.116,260.5 920.559,338 	"/>
	<polygon fill="#00ACB3" stroke="#262626" stroke-width="2" stroke-miterlimit="10" points="831.441,493 786.884,415.5 831.441,338 
		920.559,338 965.116,415.5 920.559,493 	"/>
	<polygon fill="#007176" stroke="#262626" stroke-width="2" stroke-miterlimit="10" points="965.441,105 920.884,27.5 965.441,-50 
		1054.559,-50 1099.116,27.5 1054.559,105 	"/>
	<polygon fill="#007176" stroke="#262626" stroke-width="2" stroke-miterlimit="10" points="965.441,260 920.884,182.5 965.441,105 
		1054.559,105 1099.116,182.5 1054.559,260 	"/>
	<polygon fill="#007176" stroke="#262626" stroke-width="2" stroke-miterlimit="10" points="965.441,415 920.884,337.5 965.441,260 
		1054.559,260 1099.116,337.5 1054.559,415 	"/>
	<polygon fill="#007176" stroke="#262626" stroke-width="2" stroke-miterlimit="10" points="965.441,570 920.884,492.5 965.441,415 
		1054.559,415 1099.116,492.5 1054.559,570 	"/>
	<polygon fill="#00ACB3" stroke="#262626" stroke-width="2" stroke-miterlimit="10" points="1099.441,27 1054.884,-50.5 
		1099.441,-128 1188.559,-128 1233.116,-50.5 1188.559,27 	"/>
	<polygon fill="#00ACB3" stroke="#262626" stroke-width="2" stroke-miterlimit="10" points="1099.441,182 1054.884,104.5 
		1099.441,27 1188.559,27 1233.116,104.5 1188.559,182 	"/>
	<polygon fill="#00ACB3" stroke="#262626" stroke-width="2" stroke-miterlimit="10" points="1099.441,337 1054.884,259.5 
		1099.441,182 1188.559,182 1233.116,259.5 1188.559,337 	"/>
	<polygon fill="#00ACB3" stroke="#262626" stroke-width="2" stroke-miterlimit="10" points="1099.441,492 1054.884,414.5 
		1099.441,337 1188.559,337 1233.116,414.5 1188.559,492 	"/>
	<polygon fill="#007176" stroke="#262626" stroke-width="2" stroke-miterlimit="10" points="1233.441,104 1188.884,26.5 
		1233.441,-51 1322.559,-51 1367.116,26.5 1322.559,104 	"/>
	<polygon fill="#007176" stroke="#262626" stroke-width="2" stroke-miterlimit="10" points="1233.441,259 1188.884,181.5 
		1233.441,104 1322.559,104 1367.116,181.5 1322.559,259 	"/>
	<polygon fill="#007176" stroke="#262626" stroke-width="2" stroke-miterlimit="10" points="1233.441,414 1188.884,336.5 
		1233.441,259 1322.559,259 1367.116,336.5 1322.559,414 	"/>
	<polygon fill="#007176" stroke="#262626" stroke-width="2" stroke-miterlimit="10" points="1233.441,569 1188.884,491.5 
		1233.441,414 1322.559,414 1367.116,491.5 1322.559,569 	"/>
	<polygon fill="#00ACB3" stroke="#262626" stroke-width="2" stroke-miterlimit="10" points="1367.441,181 1322.884,103.5 
		1367.441,26 1456.559,26 1501.116,103.5 1456.559,181 	"/>
	<polygon fill="#00ACB3" stroke="#262626" stroke-width="2" stroke-miterlimit="10" points="1367.441,336 1322.884,258.5 
		1367.441,181 1456.559,181 1501.116,258.5 1456.559,336 	"/>
	<polygon fill="#00ACB3" stroke="#262626" stroke-width="2" stroke-miterlimit="10" points="1367.441,491 1322.884,413.5 
		1367.441,336 1456.559,336 1501.116,413.5 1456.559,491 	"/>
	<polygon fill="#00ACB3" stroke="#262626" stroke-width="2" stroke-miterlimit="10" points="1367.441,646 1322.884,568.5 
		1367.441,491 1456.559,491 1501.116,568.5 1456.559,646 	"/>
</g>
<line fill="#F2F4F3" stroke="#EBEDEC" stroke-width="0.75" stroke-miterlimit="10" x1="-47.529" y1="287.754" x2="-39.294" y2="303.516"/>
<line fill="#F2F4F3" stroke="#EBEDEC" stroke-width="0.75" stroke-miterlimit="10" x1="85.471" y1="366.754" x2="93.706" y2="382.516"/>
<line fill="#F2F4F3" stroke="#EBEDEC" stroke-width="2" stroke-miterlimit="10" x1="219.471" y1="289.754" x2="227.706" y2="305.516"/>
<line fill="#F2F4F3" stroke="#EBEDEC" stroke-width="2" stroke-miterlimit="10" x1="487.471" y1="288.754" x2="495.706" y2="304.516"/>
<line fill="#F2F4F3" stroke="#EBEDEC" stroke-width="2" stroke-miterlimit="10" x1="355.471" y1="206.754" x2="363.706" y2="222.516"/>
<line fill="#F2F4F3" stroke="#EBEDEC" stroke-width="2" stroke-miterlimit="10" x1="487.471" y1="128.754" x2="495.706" y2="144.516"/>
<line fill="#F2F4F3" stroke="#EBEDEC" stroke-width="2" stroke-miterlimit="10" x1="352.471" y1="52.754" x2="360.706" y2="68.516"/>
<line fill="#F2F4F3" stroke="#EBEDEC" stroke-width="2" stroke-miterlimit="10" x1="85.471" y1="54.754" x2="93.706" y2="70.516"/>
<line fill="#F2F4F3" stroke="#EBEDEC" stroke-width="2" stroke-miterlimit="10" x1="218.471" y1="128.754" x2="226.706" y2="144.516"/>
<line fill="#F2F4F3" stroke="#EBEDEC" stroke-width="2" stroke-miterlimit="10" x1="83.471" y1="205.754" x2="91.706" y2="221.516"/>
<g>
</g>
<g>
</g>
<g>
</g>
<g>
</g>
<g>
</g>
<g>
</g>
<g>
</g>
<g>
</g>
<g>
</g>
<g>
</g>
<g>
</g>
<g>
</g>
<g>
</g>
<g>
</g>
<g>
</g>
</svg>
