<?xml version="1.0" encoding="utf-8"?>
<!-- Generator: Adobe Illustrator 16.0.3, SVG Export Plug-In . SVG Version: 6.00 Build 0)  -->
<!DOCTYPE svg PUBLIC "-//W3C//DTD SVG 1.1//EN" "http://www.w3.org/Graphics/SVG/1.1/DTD/svg11.dtd">
<svg version="1.1" id="Capa_1" xmlns="http://www.w3.org/2000/svg" xmlns:xlink="http://www.w3.org/1999/xlink" x="0px" y="0px"
	 width="406.479px" height="298.485px" viewBox="0 0 406.479 298.485" enable-background="new 0 0 406.479 298.485"
	 xml:space="preserve">
<g>
	<linearGradient id="SVGID_1_" gradientUnits="userSpaceOnUse" x1="392.1172" y1="167.3896" x2="15.3823" y2="167.4088">
		<stop  offset="0.0466" style="stop-color:#2F2F2F"/>
		<stop  offset="0.0891" style="stop-color:#6A6A6A"/>
		<stop  offset="0.9243" style="stop-color:#686868"/>
		<stop  offset="0.9668" style="stop-color:#2B2B2B"/>
	</linearGradient>
	<path fill="url(#SVGID_1_)" stroke="#333333" stroke-miterlimit="10" d="M389.396,240.229c0,12.887-13.762,25.67-31.164,25.67
		H49.253c-17.401,0-31.858-12.783-31.858-25.67V88.217c0-12.884,14.457-19.317,31.858-19.317h308.978
		c17.402,0,31.164,6.433,31.164,19.317V240.229z"/>
	<linearGradient id="SVGID_2_" gradientUnits="userSpaceOnUse" x1="202.8242" y1="229.0059" x2="202.9615" y2="35.8931">
		<stop  offset="0" style="stop-color:#FFFFFF"/>
		<stop  offset="0.0015" style="stop-color:#F0F0F0"/>
		<stop  offset="0.0045" style="stop-color:#C7C7C7"/>
		<stop  offset="0.0086" style="stop-color:#878787"/>
		<stop  offset="0.0121" style="stop-color:#4A4A4A"/>
		<stop  offset="0.1321" style="stop-color:#5C5C5C"/>
		<stop  offset="0.1757" style="stop-color:#646464"/>
		<stop  offset="0.4497" style="stop-color:#434343"/>
		<stop  offset="1" style="stop-color:#484848"/>
	</linearGradient>
	<path fill="url(#SVGID_2_)" stroke="#666666" stroke-miterlimit="10" d="M383.396,203.142c0,12.512-14.711,25.758-31.529,25.758
		H53.276c-16.817,0-30.88-13.246-30.88-25.758V55.497c0-12.514,14.063-22.597,30.88-22.597h298.59
		c16.818,0,31.529,10.083,31.529,22.597V203.142z"/>
	<path fill="#FCFCFC" stroke="#4D4D4D" stroke-miterlimit="10" d="M376.396,198.722c0,11.932-14.547,22.178-30.693,22.178H59.037
		c-16.146,0-29.641-10.246-29.641-22.178V57.948c0-11.932,13.496-22.049,29.641-22.049h286.666
		c16.146,0,30.693,10.117,30.693,22.049V198.722z"/>
</g>
<g>
	<line fill="none" stroke="#000000" stroke-miterlimit="10" x1="228.262" y1="725.993" x2="166.089" y2="571.798"/>
	<path fill="none" stroke="#000000" stroke-miterlimit="10" d="M313.984,524.176c1.468,3.517-0.295,7.601-3.842,9.081
		l-130.807,54.616c-3.549,1.481-7.618-0.167-9.086-3.685l-27.7-66.343c-1.468-3.517,0.229-7.544,3.778-9.026l130.807-54.616
		c3.547-1.481,7.681,0.112,9.149,3.628L313.984,524.176z"/>
</g>
<g>
</g>
<g>
</g>
<g>
</g>
<g>
</g>
<g>
</g>
<g>
</g>
<g>
</g>
<g>
</g>
<g>
</g>
<g>
</g>
<g>
</g>
<g>
</g>
<g>
</g>
<g>
</g>
<g>
</g>
</svg>
