<?xml version="1.0" encoding="utf-8"?>
<!-- Generator: Adobe Illustrator 16.0.3, SVG Export Plug-In . SVG Version: 6.00 Build 0)  -->
<!DOCTYPE svg PUBLIC "-//W3C//DTD SVG 1.1//EN" "http://www.w3.org/Graphics/SVG/1.1/DTD/svg11.dtd">
<svg version="1.1" id="Capa_1" xmlns="http://www.w3.org/2000/svg" xmlns:xlink="http://www.w3.org/1999/xlink" x="0px" y="0px"
	 width="272.29px" height="101px" viewBox="0 0 272.29 101" enable-background="new 0 0 272.29 101" xml:space="preserve">
<linearGradient id="SVGID_1_" gradientUnits="userSpaceOnUse" x1="195.7915" y1="-300.5" x2="405.9976" y2="-300.5">
	<stop  offset="0" style="stop-color:#000000"/>
	<stop  offset="0.3351" style="stop-color:#097664"/>
	<stop  offset="0.4974" style="stop-color:#0A8470"/>
	<stop  offset="0.6649" style="stop-color:#0FC6A8"/>
	<stop  offset="1" style="stop-color:#097F6B"/>
</linearGradient>
<polygon fill="url(#SVGID_1_)" points="195.792,-272 204.625,-253 241.664,-253 286.792,-337 371.087,-337 386.839,-312 
	359.167,-312 363.423,-299 405.998,-299 375.77,-348 276.575,-348 231.021,-266 212.714,-266 207.18,-278.75 "/>
<linearGradient id="SVGID_2_" gradientUnits="userSpaceOnUse" x1="364.8823" y1="-299.1035" x2="413.6857" y2="-337.7839">
	<stop  offset="0" style="stop-color:#7E0700"/>
	<stop  offset="0.1257" style="stop-color:#B60006"/>
	<stop  offset="0.2775" style="stop-color:#FFFFFF"/>
	<stop  offset="0.4869" style="stop-color:#BF1F24"/>
	<stop  offset="0.5969" style="stop-color:#790800"/>
	<stop  offset="0.822" style="stop-color:#7E0700"/>
	<stop  offset="1" style="stop-color:#7C0700"/>
</linearGradient>
<polygon fill="url(#SVGID_2_)" stroke="#00040F" stroke-miterlimit="10" points="345.667,-324.5 359.934,-324.5 390.145,-278.5 
	375.879,-278.5 "/>
<linearGradient id="SVGID_3_" gradientUnits="userSpaceOnUse" x1="155.814" y1="-274.5273" x2="177.0864" y2="-274.5273">
	<stop  offset="0.1204" style="stop-color:#B60006"/>
	<stop  offset="0.5393" style="stop-color:#BE4C57"/>
	<stop  offset="0.5864" style="stop-color:#BE4C57"/>
	<stop  offset="0.8586" style="stop-color:#B60006"/>
</linearGradient>
<path fill="url(#SVGID_3_)" d="M177.083-269.196c0.194,0.259-8.511,3.66-18.414,0.132c-9.901-3.527,9.126-12.519,9.126-12.519
	L177.083-269.196z"/>
<g>
	<path fill="#58442A" d="M190.667-330H344.63l35.815,55.723c0,0,1.235,3.402,0,4.402c-1.234,1-189.778-0.063-189.778-0.063
		l17.564-30.115L190.667-330z"/>
	<linearGradient id="SVGID_4_" gradientUnits="userSpaceOnUse" x1="191.5967" y1="-303.5" x2="376.1626" y2="-303.5">
		<stop  offset="0.2042" style="stop-color:#867764"/>
		<stop  offset="0.8796" style="stop-color:#867764"/>
		<stop  offset="0.9843" style="stop-color:#58442A"/>
	</linearGradient>
	<polygon fill="url(#SVGID_4_)" points="191.597,-329 344.171,-329 376.163,-278 374.727,-278 344.354,-325.527 193.437,-325.875 	
		"/>
</g>
<linearGradient id="SVGID_5_" gradientUnits="userSpaceOnUse" x1="167.5923" y1="-337.5405" x2="167.1882" y2="-316.3823">
	<stop  offset="0" style="stop-color:#B60006"/>
	<stop  offset="0.4503" style="stop-color:#BE4C57"/>
	<stop  offset="0.5079" style="stop-color:#BE4C57"/>
	<stop  offset="0.8848" style="stop-color:#B91820"/>
</linearGradient>
<path fill="url(#SVGID_5_)" d="M165.641-316.419c-0.191,0.261-5.974-7.081-5.474-17.581s14.63,5.096,14.63,5.096L165.641-316.419z"
	/>
<linearGradient id="SVGID_6_" gradientUnits="userSpaceOnUse" x1="164.0933" y1="-315.1606" x2="203.7639" y2="-285.1098">
	<stop  offset="0" style="stop-color:#7E0700"/>
	<stop  offset="0.1257" style="stop-color:#B60006"/>
	<stop  offset="0.2251" style="stop-color:#790800"/>
	<stop  offset="0.4974" style="stop-color:#BF1F24"/>
	<stop  offset="0.822" style="stop-color:#7E0700"/>
	<stop  offset="0.911" style="stop-color:#B60006"/>
	<stop  offset="1" style="stop-color:#7C0700"/>
</linearGradient>
<polygon fill="url(#SVGID_6_)" stroke="#000000" stroke-width="2" stroke-miterlimit="10" points="183.667,-341 152.5,-299.723 
	183.667,-259.667 214.833,-299.723 "/>
<linearGradient id="SVGID_7_" gradientUnits="userSpaceOnUse" x1="182.2437" y1="-296.9224" x2="192.9232" y2="-288.2923">
	<stop  offset="0" style="stop-color:#F3978F"/>
	<stop  offset="0.288" style="stop-color:#F7CC85"/>
	<stop  offset="0.8272" style="stop-color:#FFFFB7"/>
	<stop  offset="0.9738" style="stop-color:#F99961"/>
</linearGradient>
<polygon fill="url(#SVGID_7_)" points="183.667,-300 201.667,-300 183.667,-277 "/>
<linearGradient id="SVGID_8_" gradientUnits="userSpaceOnUse" x1="-257.7563" y1="-296.9219" x2="-247.0768" y2="-288.2918" gradientTransform="matrix(-1 0 0 1 -72.667 0)">
	<stop  offset="0" style="stop-color:#F3978F"/>
	<stop  offset="0.2775" style="stop-color:#E86522"/>
	<stop  offset="0.8586" style="stop-color:#E83222"/>
	<stop  offset="0.9634" style="stop-color:#000000"/>
</linearGradient>
<polygon fill="url(#SVGID_8_)" points="183.667,-300 165.667,-300 183.667,-277 "/>
<linearGradient id="SVGID_9_" gradientUnits="userSpaceOnUse" x1="182.1035" y1="-372.2432" x2="192.7824" y2="-363.6137" gradientTransform="matrix(1 -0.0019 -0.0019 -1 -0.5516 -674.7705)">
	<stop  offset="0" style="stop-color:#F3978F"/>
	<stop  offset="0.2775" style="stop-color:#E86522"/>
	<stop  offset="0.8586" style="stop-color:#FA8F41"/>
	<stop  offset="0.9634" style="stop-color:#000000"/>
</linearGradient>
<polygon fill="url(#SVGID_9_)" points="183.688,-299.799 201.688,-299.832 183.645,-322.799 "/>
<linearGradient id="SVGID_10_" gradientUnits="userSpaceOnUse" x1="184.4888" y1="-339.4946" x2="183.6828" y2="-297.2914">
	<stop  offset="0.199" style="stop-color:#BE4C57"/>
	<stop  offset="0.5759" style="stop-color:#EEC2C3"/>
	<stop  offset="0.8586" style="stop-color:#B60006"/>
</linearGradient>
<path fill="url(#SVGID_10_)" d="M153.792-299.723l29.853-39.777c0,0-0.228-0.333,1.772,2.667l28.25,37.11l-1.625,1.695
	c0,0-27.016-35.003-27.375-35.473c-0.101-0.133-1.138-1.112-2.25,0c-1.007,1.007-27.125,35.666-27.125,35.666L153.792-299.723z"/>
<linearGradient id="SVGID_11_" gradientUnits="userSpaceOnUse" x1="-251.8994" y1="-371.8057" x2="-241.2206" y2="-363.1762" gradientTransform="matrix(-1 5.000000e-004 -5.000000e-004 -1 -66.992 -674.5783)">
	<stop  offset="0" style="stop-color:#F3978F"/>
	<stop  offset="0.1832" style="stop-color:#E86522"/>
	<stop  offset="0.6178" style="stop-color:#BA0808"/>
	<stop  offset="0.8586" style="stop-color:#B60006"/>
	<stop  offset="0.9634" style="stop-color:#000000"/>
</linearGradient>
<polygon fill="url(#SVGID_11_)" points="183.672,-299.82 165.672,-299.811 183.662,-322.82 "/>
<linearGradient id="SVGID_12_" gradientUnits="userSpaceOnUse" x1="183.7368" y1="-303.7222" x2="183.1185" y2="-271.346">
	<stop  offset="0.199" style="stop-color:#BE4C57"/>
	<stop  offset="0.6911" style="stop-color:#BE4C57"/>
	<stop  offset="0.8586" style="stop-color:#B60006"/>
</linearGradient>
<path fill="url(#SVGID_12_)" d="M164.167-295.834l18.042,23.043c0,0,1.458,2.208,2.771,0.354
	c0.718-1.016,18.021-23.125,18.021-23.125s0-2.771-1.667-2.438l-17.653,22.688l0,0c-1.167-1.166-17.23-22.188-17.23-22.188
	S164.792-298.292,164.167-295.834z"/>
<polygon fill="none" stroke="#000006" stroke-width="2" stroke-miterlimit="10" points="183.662,-322.82 201.688,-299.832 
	183.667,-277 165.672,-299.811 "/>
<g>
	<linearGradient id="SVGID_13_" gradientUnits="userSpaceOnUse" x1="59.8916" y1="50.5" x2="266.4565" y2="50.5">
		<stop  offset="0" style="stop-color:#0EE0A2"/>
		<stop  offset="0.1571" style="stop-color:#097B69"/>
		<stop  offset="0.4136" style="stop-color:#097664"/>
		<stop  offset="0.4974" style="stop-color:#0A8470"/>
		<stop  offset="0.6649" style="stop-color:#0FC6A8"/>
		<stop  offset="1" style="stop-color:#097F6B"/>
	</linearGradient>
	<polygon fill="url(#SVGID_13_)" points="59.892,76.597 68.573,94 104.969,94 154.167,16 232.151,16 247.63,40 220.437,40 
		224.62,52 266.457,52 236.753,7 145.417,7 97.917,82 76.521,82 71.083,70.281 	"/>
	<linearGradient id="SVGID_14_" gradientUnits="userSpaceOnUse" x1="232.2876" y1="50.1543" x2="274.7667" y2="16.4864">
		<stop  offset="0" style="stop-color:#7E0700"/>
		<stop  offset="0.1257" style="stop-color:#B60006"/>
		<stop  offset="0.2775" style="stop-color:#FFFFFF"/>
		<stop  offset="0.4869" style="stop-color:#BF1F24"/>
		<stop  offset="0.5969" style="stop-color:#790800"/>
		<stop  offset="0.822" style="stop-color:#7E0700"/>
		<stop  offset="1" style="stop-color:#7C0700"/>
	</linearGradient>
	<path fill="url(#SVGID_14_)" stroke="#00040F" stroke-width="3" stroke-miterlimit="10" d="M212.767,26.5h10.65
		c0,0,3.691,0.106,5.931,3.294S257.245,69.5,257.245,69.5h-3.412h-10.855L212.767,26.5z"/>
	<linearGradient id="SVGID_15_" gradientUnits="userSpaceOnUse" x1="11.9136" y1="75.4727" x2="33.186" y2="75.4727">
		<stop  offset="0.1204" style="stop-color:#B60006"/>
		<stop  offset="0.5393" style="stop-color:#BE4C57"/>
		<stop  offset="0.5864" style="stop-color:#BE4C57"/>
		<stop  offset="0.8586" style="stop-color:#B60006"/>
	</linearGradient>
	<path fill="url(#SVGID_15_)" d="M33.183,80.804c0.194,0.259-8.511,3.66-18.414,0.132c-9.9-3.527,9.127-12.519,9.127-12.519
		L33.183,80.804z"/>
	<path fill="#58442A" stroke="#000000" stroke-width="4" stroke-miterlimit="10" d="M53.371,23h155.359
		c0,0,35.381,47.793,35.815,50.49c0.005,0.03,0.07,4.221-4.282,4.196L51.917,77.565L72.331,49.5L53.371,23z"/>
	<linearGradient id="SVGID_16_" gradientUnits="userSpaceOnUse" x1="55.6963" y1="48" x2="240.2627" y2="48">
		<stop  offset="0.2042" style="stop-color:#867764"/>
		<stop  offset="0.8796" style="stop-color:#867764"/>
		<stop  offset="0.9843" style="stop-color:#58442A"/>
	</linearGradient>
	<polygon fill="url(#SVGID_16_)" points="55.696,25 208.271,25 240.263,71 237.037,71 207.037,27.707 57.537,27.818 	"/>
	<linearGradient id="SVGID_17_" gradientUnits="userSpaceOnUse" x1="23.6929" y1="12.459" x2="23.2888" y2="33.6172">
		<stop  offset="0" style="stop-color:#B60006"/>
		<stop  offset="0.4503" style="stop-color:#BE4C57"/>
		<stop  offset="0.5079" style="stop-color:#BE4C57"/>
		<stop  offset="0.8848" style="stop-color:#B91820"/>
	</linearGradient>
	<path fill="url(#SVGID_17_)" d="M21.74,33.581C21.55,33.842,15.767,26.5,16.267,16s14.63,5.096,14.63,5.096L21.74,33.581z"/>
	<g>
		<linearGradient id="SVGID_18_" gradientUnits="userSpaceOnUse" x1="19.3452" y1="31.4492" x2="66.0591" y2="66.8355">
			<stop  offset="0" style="stop-color:#7E0700"/>
			<stop  offset="0.1257" style="stop-color:#B60006"/>
			<stop  offset="0.2251" style="stop-color:#790800"/>
			<stop  offset="0.4974" style="stop-color:#BF1F24"/>
			<stop  offset="0.822" style="stop-color:#7E0700"/>
			<stop  offset="0.911" style="stop-color:#B60006"/>
			<stop  offset="1" style="stop-color:#7C0700"/>
		</linearGradient>
		<path fill="url(#SVGID_18_)" stroke="#000000" stroke-width="3" stroke-miterlimit="10" d="M38.441,12.101
			C36.46,14.368,6.951,47.813,6.951,47.813s-1.403,1.656,0,3.186S36.298,83.331,38.268,85c3.394,2.875,4.604,5.625,9.202,0.125
			l31.947-35.924c0,0-33.294-36.72-33.776-37.289C43.961,9.928,40.422,9.833,38.441,12.101z"/>
		<linearGradient id="SVGID_19_" gradientUnits="userSpaceOnUse" x1="43.3516" y1="11.9219" x2="42.5857" y2="52.0269">
			<stop  offset="0.199" style="stop-color:#BE4C57"/>
			<stop  offset="0.5759" style="stop-color:#EEC2C3"/>
			<stop  offset="0.8586" style="stop-color:#B60006"/>
		</linearGradient>
		<path fill="url(#SVGID_19_)" d="M8.693,48.354C9.8,47.1,39.769,13.125,39.769,13.125s2.323-2.713,4.647-0.063L77.19,49.352
			l-1.646,1.62c0,0-31.748-35.017-32.254-35.503c-0.978-0.938-1.198-0.938-2.095,0.031C40.164,16.613,9.589,51.396,9.589,51.396
			s-0.433-0.363-0.896-0.938S7.586,49.609,8.693,48.354z"/>
		<linearGradient id="SVGID_20_" gradientUnits="userSpaceOnUse" x1="42.5605" y1="44.9668" x2="41.9364" y2="77.653">
			<stop  offset="0.199" style="stop-color:#BE4C57"/>
			<stop  offset="0.6911" style="stop-color:#BE4C57"/>
			<stop  offset="0.8586" style="stop-color:#B60006"/>
		</linearGradient>
		<path fill="url(#SVGID_20_)" d="M19.996,53.166c1.338,1.471,20.958,23.043,20.958,23.043s1.695,2.208,3.22,0.354
			c0.833-1.016,20.141-22.125,20.867-23.313S64.75,50.125,63.173,51L42.665,73.688l0,0C41.309,72.521,24.618,53.813,22.648,51.5
			C20.678,49.188,18.658,51.695,19.996,53.166z"/>
		<g>
			<g>
				<g>
					<linearGradient id="SVGID_21_" gradientUnits="userSpaceOnUse" x1="41.895" y1="51.4346" x2="53.8999" y2="61.1356">
						<stop  offset="0" style="stop-color:#F3978F"/>
						<stop  offset="0.288" style="stop-color:#F7CC85"/>
						<stop  offset="0.8272" style="stop-color:#FFFFB7"/>
						<stop  offset="0.9738" style="stop-color:#F99961"/>
					</linearGradient>
					<polygon fill="url(#SVGID_21_)" points="42.667,49 63.56,49 42.667,72 					"/>
					
						<linearGradient id="SVGID_22_" gradientUnits="userSpaceOnUse" x1="41.0815" y1="-721.6206" x2="53.0936" y2="-711.9138" gradientTransform="matrix(1 -0.0019 -0.0019 -1 -0.5516 -674.7705)">
						<stop  offset="0" style="stop-color:#F3978F"/>
						<stop  offset="0.2775" style="stop-color:#E86522"/>
						<stop  offset="0.8586" style="stop-color:#FA8F41"/>
						<stop  offset="0.9634" style="stop-color:#000000"/>
					</linearGradient>
					<polygon fill="url(#SVGID_22_)" points="42.674,49.201 63.584,49.168 42.623,26.201 					"/>
				</g>
				<g>
					
						<linearGradient id="SVGID_23_" gradientUnits="userSpaceOnUse" x1="-116.0967" y1="51.4277" x2="-104.0716" y2="61.1451" gradientTransform="matrix(-1 0 0 1 -72.667 0)">
						<stop  offset="0" style="stop-color:#F3978F"/>
						<stop  offset="0.2775" style="stop-color:#E86522"/>
						<stop  offset="0.8586" style="stop-color:#E83222"/>
						<stop  offset="0.9634" style="stop-color:#000000"/>
					</linearGradient>
					<polygon fill="url(#SVGID_23_)" points="42.667,49 21.738,49 42.667,72 					"/>
					
						<linearGradient id="SVGID_24_" gradientUnits="userSpaceOnUse" x1="-110.0532" y1="-721.3818" x2="-98.0375" y2="-711.6721" gradientTransform="matrix(-1 5.000000e-004 -5.000000e-004 -1 -66.992 -674.5783)">
						<stop  offset="0" style="stop-color:#F3978F"/>
						<stop  offset="0.1832" style="stop-color:#E86522"/>
						<stop  offset="0.6178" style="stop-color:#BA0808"/>
						<stop  offset="0.8586" style="stop-color:#B60006"/>
						<stop  offset="0.9634" style="stop-color:#000000"/>
					</linearGradient>
					<polygon fill="url(#SVGID_24_)" points="42.656,49.18 21.745,49.189 42.643,26.18 					"/>
				</g>
			</g>
			<polygon fill="none" stroke="#000006" stroke-width="2" stroke-miterlimit="10" points="42.643,26.18 63.584,49.168 42.649,72 
				21.745,49.189 			"/>
		</g>
	</g>
</g>
<g>
	<linearGradient id="SVGID_25_" gradientUnits="userSpaceOnUse" x1="-50.1084" y1="-85.5" x2="156.4565" y2="-85.5">
		<stop  offset="0" style="stop-color:#000000"/>
		<stop  offset="0.3351" style="stop-color:#097664"/>
		<stop  offset="0.4974" style="stop-color:#0A8470"/>
		<stop  offset="0.6649" style="stop-color:#0FC6A8"/>
		<stop  offset="1" style="stop-color:#097F6B"/>
	</linearGradient>
	<polygon fill="url(#SVGID_25_)" points="-50.108,-59.403 -41.427,-42 -5.031,-42 39.315,-120 122.151,-120 137.63,-96 110.437,-96 
		114.62,-84 156.457,-84 126.753,-129 29.275,-129 -15.49,-54 -33.479,-54 -38.917,-65.719 	"/>
	<linearGradient id="SVGID_26_" gradientUnits="userSpaceOnUse" x1="119.333" y1="-86.8809" x2="162.4796" y2="-121.0778">
		<stop  offset="0" style="stop-color:#7E0700"/>
		<stop  offset="0.1257" style="stop-color:#B60006"/>
		<stop  offset="0.2775" style="stop-color:#FFFFFF"/>
		<stop  offset="0.4869" style="stop-color:#BF1F24"/>
		<stop  offset="0.5969" style="stop-color:#790800"/>
		<stop  offset="0.822" style="stop-color:#7E0700"/>
		<stop  offset="1" style="stop-color:#7C0700"/>
	</linearGradient>
	<polygon fill="url(#SVGID_26_)" stroke="#00040F" stroke-width="3" stroke-miterlimit="10" points="99.767,-110.5 114.033,-110.5 
		144.245,-67.5 129.979,-67.5 	"/>
	<linearGradient id="SVGID_27_" gradientUnits="userSpaceOnUse" x1="-90.0864" y1="-61.5273" x2="-68.814" y2="-61.5273">
		<stop  offset="0.1204" style="stop-color:#B60006"/>
		<stop  offset="0.5393" style="stop-color:#BE4C57"/>
		<stop  offset="0.5864" style="stop-color:#BE4C57"/>
		<stop  offset="0.8586" style="stop-color:#B60006"/>
	</linearGradient>
	<path fill="url(#SVGID_27_)" d="M-68.817-56.196c0.194,0.259-8.511,3.66-18.414,0.132c-9.9-3.527,9.127-12.519,9.127-12.519
		L-68.817-56.196z"/>
	<path fill="#58442A" stroke="#000000" stroke-width="4" stroke-miterlimit="10" d="M-56.629-113H98.729
		c0,0,35.381,47.793,35.815,50.49c0.005,0.03,0.07,4.221-4.282,4.196l-188.346-0.121L-37.669-86.5L-56.629-113z"/>
	<linearGradient id="SVGID_28_" gradientUnits="userSpaceOnUse" x1="-54.3037" y1="-88" x2="130.2627" y2="-88">
		<stop  offset="0.2042" style="stop-color:#867764"/>
		<stop  offset="0.8796" style="stop-color:#867764"/>
		<stop  offset="0.9843" style="stop-color:#58442A"/>
	</linearGradient>
	<polygon fill="url(#SVGID_28_)" points="-54.304,-111 98.271,-111 130.263,-65 127.037,-65 97.037,-108.293 -52.463,-108.182 	"/>
	<linearGradient id="SVGID_29_" gradientUnits="userSpaceOnUse" x1="-78.3071" y1="-124.54" x2="-78.7112" y2="-103.3818">
		<stop  offset="0" style="stop-color:#B60006"/>
		<stop  offset="0.4503" style="stop-color:#BE4C57"/>
		<stop  offset="0.5079" style="stop-color:#BE4C57"/>
		<stop  offset="0.8848" style="stop-color:#B91820"/>
	</linearGradient>
	<path fill="url(#SVGID_29_)" d="M-80.26-103.419c-0.19,0.261-5.974-7.081-5.474-17.581s14.63,5.096,14.63,5.096L-80.26-103.419z"/>
	<linearGradient id="SVGID_30_" gradientUnits="userSpaceOnUse" x1="-82.4009" y1="-102.1299" x2="-42.0974" y2="-71.5996">
		<stop  offset="0" style="stop-color:#7E0700"/>
		<stop  offset="0.1257" style="stop-color:#B60006"/>
		<stop  offset="0.2251" style="stop-color:#790800"/>
		<stop  offset="0.4974" style="stop-color:#BF1F24"/>
		<stop  offset="0.822" style="stop-color:#7E0700"/>
		<stop  offset="0.911" style="stop-color:#B60006"/>
		<stop  offset="1" style="stop-color:#7C0700"/>
	</linearGradient>
	<path fill="url(#SVGID_30_)" stroke="#000000" stroke-width="3" stroke-miterlimit="10" d="M-65.855-123.899
		c-1.706,2.268-27.107,35.712-27.107,35.712s-1.208,1.656,0,3.186S-67.7-52.669-66.004-51c2.921,2.875,3.963,5.625,7.921,0.125
		l27.5-35.924c0,0-28.66-36.72-29.075-37.289C-61.104-126.072-64.15-126.167-65.855-123.899z"/>
	<linearGradient id="SVGID_31_" gradientUnits="userSpaceOnUse" x1="-63.7363" y1="-83.9473" x2="-53.0568" y2="-75.3172">
		<stop  offset="0" style="stop-color:#F3978F"/>
		<stop  offset="0.288" style="stop-color:#F7CC85"/>
		<stop  offset="0.8272" style="stop-color:#FFFFB7"/>
		<stop  offset="0.9738" style="stop-color:#F99961"/>
	</linearGradient>
	<polygon fill="url(#SVGID_31_)" points="-62.333,-87 -44.233,-87 -62.333,-64 	"/>
	
		<linearGradient id="SVGID_32_" gradientUnits="userSpaceOnUse" x1="-11.7764" y1="-83.8975" x2="-1.0968" y2="-75.2674" gradientTransform="matrix(-1 0 0 1 -72.667 0)">
		<stop  offset="0" style="stop-color:#F3978F"/>
		<stop  offset="0.2775" style="stop-color:#E86522"/>
		<stop  offset="0.8586" style="stop-color:#E83222"/>
		<stop  offset="0.9634" style="stop-color:#000000"/>
	</linearGradient>
	<polygon fill="url(#SVGID_32_)" points="-62.333,-87 -80.233,-87 -62.333,-64 	"/>
	
		<linearGradient id="SVGID_33_" gradientUnits="userSpaceOnUse" x1="-64.2007" y1="-584.7754" x2="-53.5218" y2="-576.1459" gradientTransform="matrix(1 -0.0019 -0.0019 -1 -0.5516 -674.7705)">
		<stop  offset="0" style="stop-color:#F3978F"/>
		<stop  offset="0.2775" style="stop-color:#E86522"/>
		<stop  offset="0.8586" style="stop-color:#FA8F41"/>
		<stop  offset="0.9634" style="stop-color:#000000"/>
	</linearGradient>
	<polygon fill="url(#SVGID_33_)" points="-62.212,-86.799 -44.212,-86.832 -62.256,-109.799 	"/>
	<linearGradient id="SVGID_34_" gradientUnits="userSpaceOnUse" x1="-61.5288" y1="-124.0791" x2="-62.293" y2="-84.061">
		<stop  offset="0.199" style="stop-color:#BE4C57"/>
		<stop  offset="0.5759" style="stop-color:#EEC2C3"/>
		<stop  offset="0.8586" style="stop-color:#B60006"/>
	</linearGradient>
	<path fill="url(#SVGID_34_)" d="M-91.463-87.646c0.953-1.255,26.75-35.229,26.75-35.229s2-2.713,4-0.063L-32.5-86.648l-1.417,1.62
		c0,0-27.329-35.017-27.765-35.503c-0.841-0.938-1.031-0.938-1.804,0.031c-0.888,1.113-27.207,35.896-27.207,35.896
		s-0.373-0.363-0.771-0.938S-92.416-86.391-91.463-87.646z"/>
	
		<linearGradient id="SVGID_35_" gradientUnits="userSpaceOnUse" x1="-5.8931" y1="-584.6826" x2="4.7858" y2="-576.0532" gradientTransform="matrix(-1 5.000000e-004 -5.000000e-004 -1 -66.992 -674.5783)">
		<stop  offset="0" style="stop-color:#F3978F"/>
		<stop  offset="0.1832" style="stop-color:#E86522"/>
		<stop  offset="0.6178" style="stop-color:#BA0808"/>
		<stop  offset="0.8586" style="stop-color:#B60006"/>
		<stop  offset="0.9634" style="stop-color:#000000"/>
	</linearGradient>
	<polygon fill="url(#SVGID_35_)" points="-62.228,-86.82 -80.228,-86.811 -62.238,-109.82 	"/>
	<linearGradient id="SVGID_36_" gradientUnits="userSpaceOnUse" x1="-62.291" y1="-90.9648" x2="-62.9139" y2="-58.3462">
		<stop  offset="0.199" style="stop-color:#BE4C57"/>
		<stop  offset="0.6911" style="stop-color:#BE4C57"/>
		<stop  offset="0.8586" style="stop-color:#B60006"/>
	</linearGradient>
	<path fill="url(#SVGID_36_)" d="M-81.733-82.834c1.152,1.471,18.041,23.043,18.041,23.043s1.459,2.208,2.771,0.354
		c0.718-1.016,17.337-22.125,17.962-23.313s-0.25-3.125-1.608-2.25L-62.22-62.313l0,0c-1.167-1.166-15.535-19.875-17.23-22.188
		S-82.885-84.305-81.733-82.834z"/>
	<polygon fill="none" stroke="#000006" stroke-width="2" stroke-miterlimit="10" points="-62.238,-109.82 -44.212,-86.832 
		-62.233,-64 -80.228,-86.811 	"/>
</g>
<linearGradient id="SVGID_37_" gradientUnits="userSpaceOnUse" x1="251.021" y1="-105.5" x2="461.2271" y2="-105.5">
	<stop  offset="0" style="stop-color:#000000"/>
	<stop  offset="0.3351" style="stop-color:#097664"/>
	<stop  offset="0.4974" style="stop-color:#0A8470"/>
	<stop  offset="0.6649" style="stop-color:#0FC6A8"/>
	<stop  offset="1" style="stop-color:#097F6B"/>
</linearGradient>
<polygon fill="url(#SVGID_37_)" points="251.021,-77 259.855,-58 296.893,-58 342.021,-142 426.317,-142 442.069,-117 414.396,-117 
	418.653,-104 461.227,-104 431,-153 331.804,-153 286.25,-71 267.944,-71 262.41,-83.75 "/>
<linearGradient id="SVGID_38_" gradientUnits="userSpaceOnUse" x1="420.1108" y1="-106.1035" x2="468.9142" y2="-144.7839">
	<stop  offset="0" style="stop-color:#7E0700"/>
	<stop  offset="0.1257" style="stop-color:#B60006"/>
	<stop  offset="0.2775" style="stop-color:#FFFFFF"/>
	<stop  offset="0.4869" style="stop-color:#BF1F24"/>
	<stop  offset="0.5969" style="stop-color:#790800"/>
	<stop  offset="0.822" style="stop-color:#7E0700"/>
	<stop  offset="1" style="stop-color:#7C0700"/>
</linearGradient>
<polygon fill="url(#SVGID_38_)" stroke="#00040F" stroke-width="3" stroke-miterlimit="10" points="400.896,-131.5 415.163,-131.5 
	445.375,-85.5 431.108,-85.5 "/>
<linearGradient id="SVGID_39_" gradientUnits="userSpaceOnUse" x1="211.043" y1="-82.5273" x2="232.3154" y2="-82.5273">
	<stop  offset="0.1204" style="stop-color:#B60006"/>
	<stop  offset="0.5393" style="stop-color:#BE4C57"/>
	<stop  offset="0.5864" style="stop-color:#BE4C57"/>
	<stop  offset="0.8586" style="stop-color:#B60006"/>
</linearGradient>
<path fill="url(#SVGID_39_)" d="M232.312-77.196c0.194,0.259-8.511,3.66-18.414,0.132c-9.9-3.527,9.127-12.519,9.127-12.519
	L232.312-77.196z"/>
<path fill="#58442A" stroke="#000000" stroke-width="4" stroke-miterlimit="10" d="M245.896-134h153.963l35.815,53.723
	c0,0,1.235,2.402,0,3.402c-1.234,1-189.651,0.36-189.651,0.36l17.437-29.288L245.896-134z"/>
<linearGradient id="SVGID_40_" gradientUnits="userSpaceOnUse" x1="246.8257" y1="-106.5" x2="431.3921" y2="-106.5">
	<stop  offset="0.2042" style="stop-color:#867764"/>
	<stop  offset="0.8796" style="stop-color:#867764"/>
	<stop  offset="0.9843" style="stop-color:#58442A"/>
</linearGradient>
<polygon fill="url(#SVGID_40_)" points="246.826,-132 399.401,-132 431.392,-81 428.167,-81 398.167,-128.999 248.667,-128.875 "/>
<linearGradient id="SVGID_41_" gradientUnits="userSpaceOnUse" x1="222.8213" y1="-145.54" x2="222.4173" y2="-124.3823">
	<stop  offset="0" style="stop-color:#B60006"/>
	<stop  offset="0.4503" style="stop-color:#BE4C57"/>
	<stop  offset="0.5079" style="stop-color:#BE4C57"/>
	<stop  offset="0.8848" style="stop-color:#B91820"/>
</linearGradient>
<path fill="url(#SVGID_41_)" d="M220.87-124.419c-0.19,0.261-5.974-7.081-5.474-17.581s14.63,5.096,14.63,5.096L220.87-124.419z"/>
<linearGradient id="SVGID_42_" gradientUnits="userSpaceOnUse" x1="219.3223" y1="-123.1611" x2="258.9937" y2="-93.1097">
	<stop  offset="0" style="stop-color:#7E0700"/>
	<stop  offset="0.1257" style="stop-color:#B60006"/>
	<stop  offset="0.2251" style="stop-color:#790800"/>
	<stop  offset="0.4974" style="stop-color:#BF1F24"/>
	<stop  offset="0.822" style="stop-color:#7E0700"/>
	<stop  offset="0.911" style="stop-color:#B60006"/>
	<stop  offset="1" style="stop-color:#7C0700"/>
</linearGradient>
<polygon fill="url(#SVGID_42_)" stroke="#000000" stroke-width="2" stroke-miterlimit="10" points="238.896,-149 207.729,-107.723 
	238.896,-67.667 240.236,-69.39 268.311,-105.471 270.063,-107.723 240.5,-146.874 "/>
<linearGradient id="SVGID_43_" gradientUnits="userSpaceOnUse" x1="237.2891" y1="-104.9785" x2="247.9686" y2="-96.3485">
	<stop  offset="0" style="stop-color:#F3978F"/>
	<stop  offset="0.288" style="stop-color:#F7CC85"/>
	<stop  offset="0.8272" style="stop-color:#FFFFB7"/>
	<stop  offset="0.9738" style="stop-color:#F99961"/>
</linearGradient>
<polygon fill="url(#SVGID_43_)" points="238.667,-108 256.896,-108 238.667,-85 "/>
<linearGradient id="SVGID_44_" gradientUnits="userSpaceOnUse" x1="-312.8022" y1="-104.8662" x2="-302.1227" y2="-96.2362" gradientTransform="matrix(-1 0 0 1 -72.667 0)">
	<stop  offset="0" style="stop-color:#F3978F"/>
	<stop  offset="0.2775" style="stop-color:#E86522"/>
	<stop  offset="0.8586" style="stop-color:#E83222"/>
	<stop  offset="0.9634" style="stop-color:#000000"/>
</linearGradient>
<polygon fill="url(#SVGID_44_)" points="238.667,-108 220.896,-108 238.667,-85 "/>
<linearGradient id="SVGID_45_" gradientUnits="userSpaceOnUse" x1="236.9678" y1="-564.3477" x2="247.6466" y2="-555.7182" gradientTransform="matrix(1 -0.0019 -0.0019 -1 -0.5516 -674.7705)">
	<stop  offset="0" style="stop-color:#F3978F"/>
	<stop  offset="0.2775" style="stop-color:#E86522"/>
	<stop  offset="0.8586" style="stop-color:#FA8F41"/>
	<stop  offset="0.9634" style="stop-color:#000000"/>
</linearGradient>
<polygon fill="url(#SVGID_45_)" points="238.917,-107.799 256.917,-107.832 238.874,-130.799 "/>
<linearGradient id="SVGID_46_" gradientUnits="userSpaceOnUse" x1="239.7183" y1="-147.4941" x2="238.9123" y2="-105.2914">
	<stop  offset="0.199" style="stop-color:#BE4C57"/>
	<stop  offset="0.5759" style="stop-color:#EEC2C3"/>
	<stop  offset="0.8586" style="stop-color:#B60006"/>
</linearGradient>
<path fill="url(#SVGID_46_)" d="M209.021-107.723l29.853-39.777c0,0-0.228-0.333,1.772,2.667l28.25,37.11l-1.625,1.695
	c0,0-27.016-35.003-27.375-35.473c-0.102-0.133-1.138-1.112-2.25,0c-1.007,1.007-27.125,35.666-27.125,35.666L209.021-107.723z"/>
<linearGradient id="SVGID_47_" gradientUnits="userSpaceOnUse" x1="-307.0327" y1="-563.833" x2="-296.3539" y2="-555.2036" gradientTransform="matrix(-1 5.000000e-004 -5.000000e-004 -1 -66.992 -674.5783)">
	<stop  offset="0" style="stop-color:#F3978F"/>
	<stop  offset="0.1832" style="stop-color:#E86522"/>
	<stop  offset="0.6178" style="stop-color:#BA0808"/>
	<stop  offset="0.8586" style="stop-color:#B60006"/>
	<stop  offset="0.9634" style="stop-color:#000000"/>
</linearGradient>
<polygon fill="url(#SVGID_47_)" points="238.902,-107.82 220.902,-107.811 238.891,-130.82 "/>
<linearGradient id="SVGID_48_" gradientUnits="userSpaceOnUse" x1="238.9658" y1="-111.7217" x2="238.3476" y2="-79.3461">
	<stop  offset="0.199" style="stop-color:#BE4C57"/>
	<stop  offset="0.6911" style="stop-color:#BE4C57"/>
	<stop  offset="0.8586" style="stop-color:#B60006"/>
</linearGradient>
<path fill="url(#SVGID_48_)" d="M219.396-103.834l18.041,23.043c0,0,1.459,2.208,2.771,0.354
	c0.718-1.016,18.021-23.125,18.021-23.125s0.001-2.771-1.666-2.438L238.91-83.313l0,0c-1.167-1.166-17.23-22.188-17.23-22.188
	S220.021-106.292,219.396-103.834z"/>
<polygon fill="none" stroke="#000006" stroke-width="2" stroke-miterlimit="10" points="238.891,-130.82 256.917,-107.832 
	238.896,-85 220.902,-107.811 "/>
<g>
	<linearGradient id="SVGID_49_" gradientUnits="userSpaceOnUse" x1="-33.4419" y1="-170.5" x2="173.123" y2="-170.5">
		<stop  offset="0" style="stop-color:#0ED8A2"/>
		<stop  offset="0.2199" style="stop-color:#097664"/>
		<stop  offset="0.4974" style="stop-color:#0A8470"/>
		<stop  offset="0.6649" style="stop-color:#0FC6A8"/>
		<stop  offset="1" style="stop-color:#097F6B"/>
	</linearGradient>
	<polygon fill="url(#SVGID_49_)" points="-33.442,-144.403 -24.761,-127 11.636,-127 60.833,-205 138.818,-205 154.297,-181 
		127.103,-181 131.287,-169 173.123,-169 143.419,-214 52.083,-214 4.583,-139 -16.812,-139 -22.25,-150.719 	"/>
	<linearGradient id="SVGID_50_" gradientUnits="userSpaceOnUse" x1="138.9546" y1="-170.8457" x2="181.4334" y2="-204.5134">
		<stop  offset="0" style="stop-color:#0ED8A2"/>
		<stop  offset="0.2199" style="stop-color:#097664"/>
		<stop  offset="0.4974" style="stop-color:#0A8470"/>
		<stop  offset="0.6649" style="stop-color:#0FC6A8"/>
		<stop  offset="1" style="stop-color:#097F6B"/>
	</linearGradient>
	<path fill="url(#SVGID_50_)" stroke="#00040F" stroke-width="3" stroke-miterlimit="10" d="M119.433-194.5h10.65
		c0,0,3.691,0.106,5.931,3.294s27.898,39.706,27.898,39.706H160.5h-10.855L119.433-194.5z"/>
	<linearGradient id="SVGID_51_" gradientUnits="userSpaceOnUse" x1="-81.4199" y1="-145.5273" x2="-60.1475" y2="-145.5273">
		<stop  offset="0" style="stop-color:#0ED8A2"/>
		<stop  offset="0.2199" style="stop-color:#097664"/>
		<stop  offset="0.4974" style="stop-color:#0A8470"/>
		<stop  offset="0.6649" style="stop-color:#0FC6A8"/>
		<stop  offset="1" style="stop-color:#097F6B"/>
	</linearGradient>
	<path fill="url(#SVGID_51_)" d="M-60.151-140.196c0.194,0.259-8.511,3.66-18.414,0.132c-9.9-3.527,9.127-12.519,9.127-12.519
		L-60.151-140.196z"/>
	<linearGradient id="SVGID_52_" gradientUnits="userSpaceOnUse" x1="-41.417" y1="-170.6563" x2="151.2119" y2="-170.6563">
		<stop  offset="0" style="stop-color:#0ED8A2"/>
		<stop  offset="0.2199" style="stop-color:#097664"/>
		<stop  offset="0.4974" style="stop-color:#0A8470"/>
		<stop  offset="0.6649" style="stop-color:#0FC6A8"/>
		<stop  offset="1" style="stop-color:#097F6B"/>
	</linearGradient>
	<path fill="url(#SVGID_52_)" stroke="#000000" stroke-width="4" stroke-miterlimit="10" d="M-39.963-198h155.359
		c0,0,35.381,47.793,35.815,50.49c0.005,0.03,0.07,4.221-4.282,4.196l-188.346-0.121l20.415-28.065L-39.963-198z"/>
	<linearGradient id="SVGID_53_" gradientUnits="userSpaceOnUse" x1="-37.6372" y1="-173" x2="146.9292" y2="-173">
		<stop  offset="0" style="stop-color:#0ED8A2"/>
		<stop  offset="0.2199" style="stop-color:#097664"/>
		<stop  offset="0.4974" style="stop-color:#0A8470"/>
		<stop  offset="0.6649" style="stop-color:#0FC6A8"/>
		<stop  offset="1" style="stop-color:#097F6B"/>
	</linearGradient>
	<polygon fill="url(#SVGID_53_)" points="-37.637,-196 114.938,-196 146.929,-150 143.704,-150 113.704,-193.293 -35.796,-193.182 	
		"/>
	<linearGradient id="SVGID_54_" gradientUnits="userSpaceOnUse" x1="-69.6411" y1="-208.54" x2="-70.0452" y2="-187.3823">
		<stop  offset="0" style="stop-color:#0ED8A2"/>
		<stop  offset="0.2199" style="stop-color:#097664"/>
		<stop  offset="0.4974" style="stop-color:#0A8470"/>
		<stop  offset="0.6649" style="stop-color:#0FC6A8"/>
		<stop  offset="1" style="stop-color:#097F6B"/>
	</linearGradient>
	<path fill="url(#SVGID_54_)" d="M-71.593-187.419c-0.19,0.261-5.974-7.081-5.474-17.581s14.63,5.096,14.63,5.096L-71.593-187.419z"
		/>
	<g>
		<linearGradient id="SVGID_55_" gradientUnits="userSpaceOnUse" x1="-73.9883" y1="-189.5508" x2="-27.2752" y2="-154.1651">
			<stop  offset="0" style="stop-color:#0ED8A2"/>
			<stop  offset="0.2199" style="stop-color:#097664"/>
			<stop  offset="0.4974" style="stop-color:#0A8470"/>
			<stop  offset="0.6649" style="stop-color:#0FC6A8"/>
			<stop  offset="1" style="stop-color:#097F6B"/>
		</linearGradient>
		<path fill="url(#SVGID_55_)" stroke="#000000" stroke-width="3" stroke-miterlimit="10" d="M-54.892-208.899
			c-1.981,2.268-31.491,35.712-31.491,35.712s-1.403,1.656,0,3.186S-57.035-137.669-55.065-136c3.394,2.875,4.604,5.625,9.202,0.125
			l31.947-35.924c0,0-33.294-36.72-33.776-37.289C-49.372-211.072-52.911-211.167-54.892-208.899z"/>
		<linearGradient id="SVGID_56_" gradientUnits="userSpaceOnUse" x1="-49.981" y1="-209.0781" x2="-50.7468" y2="-168.9731">
			<stop  offset="0" style="stop-color:#0ED8A2"/>
			<stop  offset="0.2199" style="stop-color:#097664"/>
			<stop  offset="0.4974" style="stop-color:#0A8470"/>
			<stop  offset="0.6649" style="stop-color:#0FC6A8"/>
			<stop  offset="1" style="stop-color:#097F6B"/>
		</linearGradient>
		<path fill="url(#SVGID_56_)" d="M-84.64-172.646c1.106-1.255,31.075-35.229,31.075-35.229s2.323-2.713,4.647-0.063l32.774,36.289
			l-1.646,1.62c0,0-31.748-35.017-32.254-35.503c-0.978-0.938-1.198-0.938-2.095,0.031c-1.031,1.113-31.606,35.896-31.606,35.896
			s-0.433-0.363-0.896-0.938S-85.747-171.391-84.64-172.646z"/>
		<linearGradient id="SVGID_57_" gradientUnits="userSpaceOnUse" x1="-50.7734" y1="-176.0332" x2="-51.3976" y2="-143.3464">
			<stop  offset="0" style="stop-color:#0ED8A2"/>
			<stop  offset="0.2199" style="stop-color:#097664"/>
			<stop  offset="0.4974" style="stop-color:#0A8470"/>
			<stop  offset="0.6649" style="stop-color:#0FC6A8"/>
			<stop  offset="1" style="stop-color:#097F6B"/>
		</linearGradient>
		<path fill="url(#SVGID_57_)" d="M-73.337-167.834c1.338,1.471,20.958,23.043,20.958,23.043s1.695,2.208,3.22,0.354
			c0.833-1.016,20.141-22.125,20.867-23.313s-0.291-3.125-1.868-2.25l-20.508,22.688l0,0c-1.356-1.166-18.047-19.875-20.017-22.188
			C-72.655-171.813-74.676-169.305-73.337-167.834z"/>
		<g>
			<g>
				<g>
					<linearGradient id="SVGID_58_" gradientUnits="userSpaceOnUse" x1="-51.1821" y1="-169.4932" x2="-39.3685" y2="-159.9467">
						<stop  offset="0" style="stop-color:#0ED8A2"/>
						<stop  offset="0.2199" style="stop-color:#097664"/>
						<stop  offset="0.4974" style="stop-color:#0A8470"/>
						<stop  offset="0.6649" style="stop-color:#0FC6A8"/>
						<stop  offset="1" style="stop-color:#097F6B"/>
					</linearGradient>
					<polygon fill="url(#SVGID_58_)" points="-50.333,-172 -29.774,-172 -50.333,-149 					"/>
					
						<linearGradient id="SVGID_59_" gradientUnits="userSpaceOnUse" x1="-51.832" y1="-500.4443" x2="-39.8192" y2="-490.7369" gradientTransform="matrix(1 -0.0019 -0.0019 -1 -0.5516 -674.7705)">
						<stop  offset="0" style="stop-color:#0ED8A2"/>
						<stop  offset="0.2199" style="stop-color:#097664"/>
						<stop  offset="0.4974" style="stop-color:#0A8470"/>
						<stop  offset="0.6649" style="stop-color:#0FC6A8"/>
						<stop  offset="1" style="stop-color:#097F6B"/>
					</linearGradient>
					<polygon fill="url(#SVGID_59_)" points="-50.66,-171.799 -29.749,-171.832 -50.71,-194.799 					"/>
				</g>
				<g>
					
						<linearGradient id="SVGID_60_" gradientUnits="userSpaceOnUse" x1="-23.019" y1="-169.6445" x2="-10.8021" y2="-159.7721" gradientTransform="matrix(-1 0 0 1 -72.667 0)">
						<stop  offset="0" style="stop-color:#0ED8A2"/>
						<stop  offset="0.2199" style="stop-color:#097664"/>
						<stop  offset="0.4974" style="stop-color:#0A8470"/>
						<stop  offset="0.6649" style="stop-color:#0FC6A8"/>
						<stop  offset="1" style="stop-color:#097F6B"/>
					</linearGradient>
					<polygon fill="url(#SVGID_60_)" points="-50.333,-172 -71.595,-172 -50.333,-149 					"/>
					
						<linearGradient id="SVGID_61_" gradientUnits="userSpaceOnUse" x1="-16.8301" y1="-500.335" x2="-4.8144" y2="-490.6252" gradientTransform="matrix(-1 5.000000e-004 -5.000000e-004 -1 -66.992 -674.5783)">
						<stop  offset="0" style="stop-color:#0ED8A2"/>
						<stop  offset="0.2199" style="stop-color:#097664"/>
						<stop  offset="0.4974" style="stop-color:#0A8470"/>
						<stop  offset="0.6649" style="stop-color:#0FC6A8"/>
						<stop  offset="1" style="stop-color:#097F6B"/>
					</linearGradient>
					<polygon fill="url(#SVGID_61_)" points="-50.678,-171.82 -71.588,-171.811 -50.69,-194.82 					"/>
				</g>
			</g>
			<linearGradient id="SVGID_62_" gradientUnits="userSpaceOnUse" x1="-50.0537" y1="-204.0039" x2="-51.1158" y2="-148.385">
				<stop  offset="0" style="stop-color:#0ED8A2"/>
				<stop  offset="0.2199" style="stop-color:#097664"/>
				<stop  offset="0.4974" style="stop-color:#0A8470"/>
				<stop  offset="0.6649" style="stop-color:#0FC6A8"/>
				<stop  offset="1" style="stop-color:#097F6B"/>
			</linearGradient>
			<polygon fill="url(#SVGID_62_)" stroke="#000006" stroke-width="2" stroke-miterlimit="10" points="-50.69,-194.82 
				-29.749,-171.832 -50.685,-149 -71.588,-171.811 			"/>
		</g>
	</g>
</g>
<g>
</g>
<g>
</g>
<g>
</g>
<g>
</g>
<g>
</g>
<g>
</g>
<g>
</g>
<g>
</g>
<g>
</g>
<g>
</g>
<g>
</g>
<g>
</g>
<g>
</g>
<g>
</g>
<g>
</g>
</svg>
