<?xml version="1.0" encoding="utf-8"?>
<!-- Generator: Adobe Illustrator 16.0.3, SVG Export Plug-In . SVG Version: 6.00 Build 0)  -->
<!DOCTYPE svg PUBLIC "-//W3C//DTD SVG 1.1//EN" "http://www.w3.org/Graphics/SVG/1.1/DTD/svg11.dtd">
<svg version="1.1" id="Capa_1" xmlns="http://www.w3.org/2000/svg" xmlns:xlink="http://www.w3.org/1999/xlink" x="0px" y="0px"
	 width="261.624px" height="101px" viewBox="0 0 261.624 101" enable-background="new 0 0 261.624 101" xml:space="preserve">
<linearGradient id="SVGID_1_" gradientUnits="userSpaceOnUse" x1="119.125" y1="-247.5" x2="329.3311" y2="-247.5">
	<stop  offset="0" style="stop-color:#000000"/>
	<stop  offset="0.3351" style="stop-color:#097664"/>
	<stop  offset="0.4974" style="stop-color:#0A8470"/>
	<stop  offset="0.6649" style="stop-color:#0FC6A8"/>
	<stop  offset="1" style="stop-color:#097F6B"/>
</linearGradient>
<polygon fill="url(#SVGID_1_)" points="119.125,-219 127.959,-200 164.998,-200 210.125,-284 294.421,-284 310.173,-259 282.5,-259 
	286.757,-246 329.331,-246 299.104,-295 199.908,-295 154.354,-213 136.048,-213 130.514,-225.75 "/>
<linearGradient id="SVGID_2_" gradientUnits="userSpaceOnUse" x1="288.2163" y1="-246.1035" x2="337.0197" y2="-284.784">
	<stop  offset="0" style="stop-color:#7E0700"/>
	<stop  offset="0.1257" style="stop-color:#B60006"/>
	<stop  offset="0.2775" style="stop-color:#FFFFFF"/>
	<stop  offset="0.4869" style="stop-color:#BF1F24"/>
	<stop  offset="0.5969" style="stop-color:#790800"/>
	<stop  offset="0.822" style="stop-color:#7E0700"/>
	<stop  offset="1" style="stop-color:#7C0700"/>
</linearGradient>
<polygon fill="url(#SVGID_2_)" stroke="#00040F" stroke-miterlimit="10" points="269,-271.5 283.267,-271.5 313.479,-225.5 
	299.212,-225.5 "/>
<linearGradient id="SVGID_3_" gradientUnits="userSpaceOnUse" x1="79.1475" y1="-221.5273" x2="100.4199" y2="-221.5273">
	<stop  offset="0.1204" style="stop-color:#B60006"/>
	<stop  offset="0.5393" style="stop-color:#BE4C57"/>
	<stop  offset="0.5864" style="stop-color:#BE4C57"/>
	<stop  offset="0.8586" style="stop-color:#B60006"/>
</linearGradient>
<path fill="url(#SVGID_3_)" d="M100.417-216.196c0.194,0.259-8.511,3.66-18.414,0.132c-9.901-3.527,9.126-12.519,9.126-12.519
	L100.417-216.196z"/>
<g>
	<path fill="#58442A" d="M114-277h153.963l35.815,55.723c0,0,1.235,3.402,0,4.402c-1.234,1-189.778-0.063-189.778-0.063
		l17.564-30.115L114-277z"/>
	<linearGradient id="SVGID_4_" gradientUnits="userSpaceOnUse" x1="114.9302" y1="-250.5" x2="299.4966" y2="-250.5">
		<stop  offset="0.2042" style="stop-color:#867764"/>
		<stop  offset="0.8796" style="stop-color:#867764"/>
		<stop  offset="0.9843" style="stop-color:#58442A"/>
	</linearGradient>
	<polygon fill="url(#SVGID_4_)" points="114.93,-276 267.505,-276 299.497,-225 298.061,-225 267.688,-272.527 116.771,-272.875 	
		"/>
</g>
<linearGradient id="SVGID_5_" gradientUnits="userSpaceOnUse" x1="90.9258" y1="-284.54" x2="90.5217" y2="-263.3818">
	<stop  offset="0" style="stop-color:#B60006"/>
	<stop  offset="0.4503" style="stop-color:#BE4C57"/>
	<stop  offset="0.5079" style="stop-color:#BE4C57"/>
	<stop  offset="0.8848" style="stop-color:#B91820"/>
</linearGradient>
<path fill="url(#SVGID_5_)" d="M88.974-263.419C88.783-263.158,83-270.5,83.5-281s14.63,5.096,14.63,5.096L88.974-263.419z"/>
<linearGradient id="SVGID_6_" gradientUnits="userSpaceOnUse" x1="87.4263" y1="-262.1611" x2="127.0969" y2="-232.1103">
	<stop  offset="0" style="stop-color:#7E0700"/>
	<stop  offset="0.1257" style="stop-color:#B60006"/>
	<stop  offset="0.2251" style="stop-color:#790800"/>
	<stop  offset="0.4974" style="stop-color:#BF1F24"/>
	<stop  offset="0.822" style="stop-color:#7E0700"/>
	<stop  offset="0.911" style="stop-color:#B60006"/>
	<stop  offset="1" style="stop-color:#7C0700"/>
</linearGradient>
<polygon fill="url(#SVGID_6_)" stroke="#000000" stroke-width="2" stroke-miterlimit="10" points="107,-288 75.833,-246.723 
	107,-206.667 138.167,-246.723 "/>
<linearGradient id="SVGID_7_" gradientUnits="userSpaceOnUse" x1="105.5771" y1="-243.9229" x2="116.2567" y2="-235.2928">
	<stop  offset="0" style="stop-color:#F3978F"/>
	<stop  offset="0.288" style="stop-color:#F7CC85"/>
	<stop  offset="0.8272" style="stop-color:#FFFFB7"/>
	<stop  offset="0.9738" style="stop-color:#F99961"/>
</linearGradient>
<polygon fill="url(#SVGID_7_)" points="107,-247 125,-247 107,-224 "/>
<linearGradient id="SVGID_8_" gradientUnits="userSpaceOnUse" x1="-202.4233" y1="-243.9219" x2="-191.7438" y2="-235.2918" gradientTransform="matrix(-1 0 0 1 -94 0)">
	<stop  offset="0" style="stop-color:#F3978F"/>
	<stop  offset="0.2775" style="stop-color:#E86522"/>
	<stop  offset="0.8586" style="stop-color:#E83222"/>
	<stop  offset="0.9634" style="stop-color:#000000"/>
</linearGradient>
<polygon fill="url(#SVGID_8_)" points="107,-247 89,-247 107,-224 "/>
<linearGradient id="SVGID_9_" gradientUnits="userSpaceOnUse" x1="105.3364" y1="-425.1182" x2="116.016" y2="-416.4881" gradientTransform="matrix(1 -0.0019 -0.0019 -1 -0.5516 -674.7908)">
	<stop  offset="0" style="stop-color:#F3978F"/>
	<stop  offset="0.2775" style="stop-color:#E86522"/>
	<stop  offset="0.8586" style="stop-color:#FA8F41"/>
	<stop  offset="0.9634" style="stop-color:#000000"/>
</linearGradient>
<polygon fill="url(#SVGID_9_)" points="107.022,-246.799 125.022,-246.832 106.978,-269.799 "/>
<linearGradient id="SVGID_10_" gradientUnits="userSpaceOnUse" x1="107.8223" y1="-286.4941" x2="107.0163" y2="-244.2909">
	<stop  offset="0.199" style="stop-color:#BE4C57"/>
	<stop  offset="0.5759" style="stop-color:#EEC2C3"/>
	<stop  offset="0.8586" style="stop-color:#B60006"/>
</linearGradient>
<path fill="url(#SVGID_10_)" d="M77.125-246.723l29.853-39.777c0,0-0.228-0.333,1.772,2.667l28.25,37.11l-1.625,1.695
	c0,0-27.016-35.003-27.375-35.473c-0.101-0.133-1.138-1.112-2.25,0c-1.007,1.007-27.125,35.666-27.125,35.666L77.125-246.723z"/>
<linearGradient id="SVGID_11_" gradientUnits="userSpaceOnUse" x1="-196.54" y1="-424.7725" x2="-185.8612" y2="-416.143" gradientTransform="matrix(-1 5.000000e-004 -5.000000e-004 -1 -88.326 -674.573)">
	<stop  offset="0" style="stop-color:#F3978F"/>
	<stop  offset="0.1832" style="stop-color:#E86522"/>
	<stop  offset="0.6178" style="stop-color:#BA0808"/>
	<stop  offset="0.8586" style="stop-color:#B60006"/>
	<stop  offset="0.9634" style="stop-color:#000000"/>
</linearGradient>
<polygon fill="url(#SVGID_11_)" points="107.006,-246.82 89.006,-246.811 106.995,-269.82 "/>
<linearGradient id="SVGID_12_" gradientUnits="userSpaceOnUse" x1="107.0708" y1="-250.7217" x2="106.4525" y2="-218.3456">
	<stop  offset="0.199" style="stop-color:#BE4C57"/>
	<stop  offset="0.6911" style="stop-color:#BE4C57"/>
	<stop  offset="0.8586" style="stop-color:#B60006"/>
</linearGradient>
<path fill="url(#SVGID_12_)" d="M87.5-242.834l18.042,23.043c0,0,1.458,2.208,2.771,0.354c0.718-1.016,18.021-23.125,18.021-23.125
	s0-2.771-1.667-2.438l-17.653,22.688l0,0c-1.167-1.166-17.23-22.188-17.23-22.188S88.125-245.292,87.5-242.834z"/>
<polygon fill="none" stroke="#000006" stroke-width="2" stroke-miterlimit="10" points="106.995,-269.82 125.022,-246.832 107,-224 
	89.006,-246.811 "/>
<g>
	<linearGradient id="SVGID_13_" gradientUnits="userSpaceOnUse" x1="49.2251" y1="50.5" x2="255.79" y2="50.5">
		<stop  offset="0" style="stop-color:#000000"/>
		<stop  offset="0.3351" style="stop-color:#097664"/>
		<stop  offset="0.4974" style="stop-color:#0A8470"/>
		<stop  offset="0.6649" style="stop-color:#0FC6A8"/>
		<stop  offset="1" style="stop-color:#097F6B"/>
	</linearGradient>
	<polygon fill="url(#SVGID_13_)" points="49.225,76.597 57.906,94 94.303,94 138.649,16 221.485,16 236.964,40 209.77,40 
		213.954,52 255.79,52 226.086,7 128.609,7 83.843,82 65.855,82 60.417,70.281 	"/>
	<linearGradient id="SVGID_14_" gradientUnits="userSpaceOnUse" x1="221.6211" y1="50.1543" x2="264.1002" y2="16.4863">
		<stop  offset="0" style="stop-color:#7E0700"/>
		<stop  offset="0.1257" style="stop-color:#B60006"/>
		<stop  offset="0.2775" style="stop-color:#FFFFFF"/>
		<stop  offset="0.4869" style="stop-color:#BF1F24"/>
		<stop  offset="0.5969" style="stop-color:#790800"/>
		<stop  offset="0.822" style="stop-color:#7E0700"/>
		<stop  offset="1" style="stop-color:#7C0700"/>
	</linearGradient>
	<path fill="url(#SVGID_14_)" stroke="#00040F" stroke-width="3" stroke-miterlimit="10" d="M202.1,26.5h10.65
		c0,0,3.691,0.106,5.931,3.294S246.579,69.5,246.579,69.5h-3.412h-10.855L202.1,26.5z"/>
	<linearGradient id="SVGID_15_" gradientUnits="userSpaceOnUse" x1="9.2471" y1="74.4727" x2="30.5195" y2="74.4727">
		<stop  offset="0.1204" style="stop-color:#B60006"/>
		<stop  offset="0.5393" style="stop-color:#BE4C57"/>
		<stop  offset="0.5864" style="stop-color:#BE4C57"/>
		<stop  offset="0.8586" style="stop-color:#B60006"/>
	</linearGradient>
	<path fill="url(#SVGID_15_)" d="M30.516,79.804c0.194,0.259-8.511,3.66-18.414,0.132c-9.9-3.527,9.127-12.519,9.127-12.519
		L30.516,79.804z"/>
	<path fill="#58442A" stroke="#000000" stroke-width="4" stroke-miterlimit="10" d="M42.704,23h155.359
		c0,0,35.381,47.793,35.815,50.49c0.005,0.03,0.07,4.221-4.282,4.196L41.25,77.565L61.665,49.5L42.704,23z"/>
	<linearGradient id="SVGID_16_" gradientUnits="userSpaceOnUse" x1="45.0298" y1="48" x2="229.5962" y2="48">
		<stop  offset="0.2042" style="stop-color:#867764"/>
		<stop  offset="0.8796" style="stop-color:#867764"/>
		<stop  offset="0.9843" style="stop-color:#58442A"/>
	</linearGradient>
	<polygon fill="url(#SVGID_16_)" points="45.03,25 197.605,25 229.596,71 226.371,71 196.371,27.707 46.871,27.818 	"/>
	<linearGradient id="SVGID_17_" gradientUnits="userSpaceOnUse" x1="21.0264" y1="11.46" x2="20.6223" y2="32.6182">
		<stop  offset="0" style="stop-color:#B60006"/>
		<stop  offset="0.4503" style="stop-color:#BE4C57"/>
		<stop  offset="0.5079" style="stop-color:#BE4C57"/>
		<stop  offset="0.8848" style="stop-color:#B91820"/>
	</linearGradient>
	<path fill="url(#SVGID_17_)" d="M19.074,32.581C18.883,32.842,13.1,25.5,13.6,15s14.63,5.096,14.63,5.096L19.074,32.581z"/>
	<linearGradient id="SVGID_18_" gradientUnits="userSpaceOnUse" x1="16.9321" y1="33.8691" x2="57.2356" y2="64.3994">
		<stop  offset="0" style="stop-color:#7E0700"/>
		<stop  offset="0.1257" style="stop-color:#B60006"/>
		<stop  offset="0.2251" style="stop-color:#790800"/>
		<stop  offset="0.4974" style="stop-color:#BF1F24"/>
		<stop  offset="0.822" style="stop-color:#7E0700"/>
		<stop  offset="0.911" style="stop-color:#B60006"/>
		<stop  offset="1" style="stop-color:#7C0700"/>
	</linearGradient>
	<path fill="url(#SVGID_18_)" stroke="#000000" stroke-width="3" stroke-miterlimit="10" d="M33.478,12.101
		C31.772,14.368,6.371,47.813,6.371,47.813s-1.208,1.656,0,3.186S31.633,83.331,33.329,85c2.921,2.875,3.963,5.625,7.921,0.125
		l27.5-35.924c0,0-28.66-36.72-29.075-37.289C38.23,9.928,35.184,9.833,33.478,12.101z"/>
	<linearGradient id="SVGID_19_" gradientUnits="userSpaceOnUse" x1="35.5972" y1="52.0527" x2="46.2767" y2="60.6828">
		<stop  offset="0" style="stop-color:#F3978F"/>
		<stop  offset="0.288" style="stop-color:#F7CC85"/>
		<stop  offset="0.8272" style="stop-color:#FFFFB7"/>
		<stop  offset="0.9738" style="stop-color:#F99961"/>
	</linearGradient>
	<polygon fill="url(#SVGID_19_)" points="37,49 55.1,49 37,72 	"/>
	
		<linearGradient id="SVGID_20_" gradientUnits="userSpaceOnUse" x1="-132.4429" y1="52.1025" x2="-121.7633" y2="60.7326" gradientTransform="matrix(-1 0 0 1 -94 0)">
		<stop  offset="0" style="stop-color:#F3978F"/>
		<stop  offset="0.2775" style="stop-color:#E86522"/>
		<stop  offset="0.8586" style="stop-color:#E83222"/>
		<stop  offset="0.9634" style="stop-color:#000000"/>
	</linearGradient>
	<polygon fill="url(#SVGID_20_)" points="37,49 19.1,49 37,72 	"/>
	
		<linearGradient id="SVGID_21_" gradientUnits="userSpaceOnUse" x1="34.874" y1="-720.9839" x2="45.5536" y2="-712.3538" gradientTransform="matrix(1 -0.0019 -0.0019 -1 -0.5516 -674.7908)">
		<stop  offset="0" style="stop-color:#F3978F"/>
		<stop  offset="0.2775" style="stop-color:#E86522"/>
		<stop  offset="0.8586" style="stop-color:#FA8F41"/>
		<stop  offset="0.9634" style="stop-color:#000000"/>
	</linearGradient>
	<polygon fill="url(#SVGID_21_)" points="37.122,49.201 55.122,49.168 37.078,26.201 	"/>
	<linearGradient id="SVGID_22_" gradientUnits="userSpaceOnUse" x1="37.8052" y1="11.9209" x2="37.041" y2="51.939">
		<stop  offset="0.199" style="stop-color:#BE4C57"/>
		<stop  offset="0.5759" style="stop-color:#EEC2C3"/>
		<stop  offset="0.8586" style="stop-color:#B60006"/>
	</linearGradient>
	<path fill="url(#SVGID_22_)" d="M7.871,48.354c0.953-1.255,26.75-35.229,26.75-35.229s2-2.713,4-0.063l28.213,36.289l-1.417,1.62
		c0,0-27.329-35.017-27.765-35.503c-0.841-0.938-1.031-0.938-1.804,0.031C34.96,16.613,8.642,51.396,8.642,51.396
		s-0.373-0.363-0.771-0.938S6.918,49.609,7.871,48.354z"/>
	
		<linearGradient id="SVGID_23_" gradientUnits="userSpaceOnUse" x1="-126.4922" y1="-720.7378" x2="-115.8126" y2="-712.1077" gradientTransform="matrix(-1 5.000000e-004 -5.000000e-004 -1 -88.326 -674.573)">
		<stop  offset="0" style="stop-color:#F3978F"/>
		<stop  offset="0.1832" style="stop-color:#E86522"/>
		<stop  offset="0.6178" style="stop-color:#BA0808"/>
		<stop  offset="0.8586" style="stop-color:#B60006"/>
		<stop  offset="0.9634" style="stop-color:#000000"/>
	</linearGradient>
	<polygon fill="url(#SVGID_23_)" points="37.106,49.18 19.106,49.189 37.095,26.18 	"/>
	<linearGradient id="SVGID_24_" gradientUnits="userSpaceOnUse" x1="37.042" y1="45.0352" x2="36.4191" y2="77.6536">
		<stop  offset="0.199" style="stop-color:#BE4C57"/>
		<stop  offset="0.6911" style="stop-color:#BE4C57"/>
		<stop  offset="0.8586" style="stop-color:#B60006"/>
	</linearGradient>
	<path fill="url(#SVGID_24_)" d="M17.6,53.166c1.152,1.471,18.041,23.043,18.041,23.043s1.459,2.208,2.771,0.354
		C39.13,75.547,55.75,54.438,56.375,53.25s-0.25-3.125-1.608-2.25L37.114,73.688l0,0c-1.167-1.166-15.535-19.875-17.23-22.188
		S16.448,51.695,17.6,53.166z"/>
	<polygon fill="none" stroke="#000006" stroke-width="2" stroke-miterlimit="10" points="37.095,26.18 55.122,49.168 37.1,72 
		19.106,49.189 	"/>
</g>
<g>
	<linearGradient id="SVGID_25_" gradientUnits="userSpaceOnUse" x1="-60.7749" y1="-85.5" x2="145.79" y2="-85.5">
		<stop  offset="0" style="stop-color:#000000"/>
		<stop  offset="0.3351" style="stop-color:#097664"/>
		<stop  offset="0.4974" style="stop-color:#0A8470"/>
		<stop  offset="0.6649" style="stop-color:#0FC6A8"/>
		<stop  offset="1" style="stop-color:#097F6B"/>
	</linearGradient>
	<polygon fill="url(#SVGID_25_)" points="-60.775,-59.403 -52.094,-42 -15.697,-42 28.649,-120 111.485,-120 126.964,-96 99.77,-96 
		103.954,-84 145.79,-84 116.086,-129 18.609,-129 -26.157,-54 -44.145,-54 -49.583,-65.719 	"/>
	<linearGradient id="SVGID_26_" gradientUnits="userSpaceOnUse" x1="108.666" y1="-86.8818" x2="151.8126" y2="-121.0788">
		<stop  offset="0" style="stop-color:#7E0700"/>
		<stop  offset="0.1257" style="stop-color:#B60006"/>
		<stop  offset="0.2775" style="stop-color:#FFFFFF"/>
		<stop  offset="0.4869" style="stop-color:#BF1F24"/>
		<stop  offset="0.5969" style="stop-color:#790800"/>
		<stop  offset="0.822" style="stop-color:#7E0700"/>
		<stop  offset="1" style="stop-color:#7C0700"/>
	</linearGradient>
	<polygon fill="url(#SVGID_26_)" stroke="#00040F" stroke-width="3" stroke-miterlimit="10" points="89.1,-110.5 103.367,-110.5 
		133.579,-67.5 119.312,-67.5 	"/>
	<linearGradient id="SVGID_27_" gradientUnits="userSpaceOnUse" x1="-100.7529" y1="-61.5273" x2="-79.4805" y2="-61.5273">
		<stop  offset="0.1204" style="stop-color:#B60006"/>
		<stop  offset="0.5393" style="stop-color:#BE4C57"/>
		<stop  offset="0.5864" style="stop-color:#BE4C57"/>
		<stop  offset="0.8586" style="stop-color:#B60006"/>
	</linearGradient>
	<path fill="url(#SVGID_27_)" d="M-79.484-56.196c0.194,0.259-8.511,3.66-18.414,0.132c-9.9-3.527,9.127-12.519,9.127-12.519
		L-79.484-56.196z"/>
	<path fill="#58442A" stroke="#000000" stroke-width="4" stroke-miterlimit="10" d="M-67.296-113H88.063
		c0,0,35.381,47.793,35.815,50.49c0.005,0.03,0.07,4.221-4.282,4.196L-68.75-58.435L-48.335-86.5L-67.296-113z"/>
	<linearGradient id="SVGID_28_" gradientUnits="userSpaceOnUse" x1="-64.9702" y1="-88" x2="119.5962" y2="-88">
		<stop  offset="0.2042" style="stop-color:#867764"/>
		<stop  offset="0.8796" style="stop-color:#867764"/>
		<stop  offset="0.9843" style="stop-color:#58442A"/>
	</linearGradient>
	<polygon fill="url(#SVGID_28_)" points="-64.97,-111 87.605,-111 119.596,-65 116.371,-65 86.371,-108.293 -63.129,-108.182 	"/>
	<linearGradient id="SVGID_29_" gradientUnits="userSpaceOnUse" x1="-88.9736" y1="-124.54" x2="-89.3777" y2="-103.3818">
		<stop  offset="0" style="stop-color:#B60006"/>
		<stop  offset="0.4503" style="stop-color:#BE4C57"/>
		<stop  offset="0.5079" style="stop-color:#BE4C57"/>
		<stop  offset="0.8848" style="stop-color:#B91820"/>
	</linearGradient>
	<path fill="url(#SVGID_29_)" d="M-90.926-103.419C-91.117-103.158-96.9-110.5-96.4-121s14.63,5.096,14.63,5.096L-90.926-103.419z"
		/>
	<linearGradient id="SVGID_30_" gradientUnits="userSpaceOnUse" x1="-93.0684" y1="-102.1309" x2="-52.7641" y2="-71.6">
		<stop  offset="0" style="stop-color:#7E0700"/>
		<stop  offset="0.1257" style="stop-color:#B60006"/>
		<stop  offset="0.2251" style="stop-color:#790800"/>
		<stop  offset="0.4974" style="stop-color:#BF1F24"/>
		<stop  offset="0.822" style="stop-color:#7E0700"/>
		<stop  offset="0.911" style="stop-color:#B60006"/>
		<stop  offset="1" style="stop-color:#7C0700"/>
	</linearGradient>
	<path fill="url(#SVGID_30_)" stroke="#000000" stroke-width="3" stroke-miterlimit="10" d="M-76.522-123.899
		c-1.706,2.268-27.107,35.712-27.107,35.712s-1.208,1.656,0,3.186S-78.367-52.669-76.671-51c2.921,2.875,3.963,5.625,7.921,0.125
		l27.5-35.924c0,0-28.66-36.72-29.075-37.289C-71.77-126.072-74.816-126.167-76.522-123.899z"/>
	<linearGradient id="SVGID_31_" gradientUnits="userSpaceOnUse" x1="-74.4028" y1="-83.9473" x2="-63.7233" y2="-75.3172">
		<stop  offset="0" style="stop-color:#F3978F"/>
		<stop  offset="0.288" style="stop-color:#F7CC85"/>
		<stop  offset="0.8272" style="stop-color:#FFFFB7"/>
		<stop  offset="0.9738" style="stop-color:#F99961"/>
	</linearGradient>
	<polygon fill="url(#SVGID_31_)" points="-73,-87 -54.9,-87 -73,-64 	"/>
	
		<linearGradient id="SVGID_32_" gradientUnits="userSpaceOnUse" x1="-22.4429" y1="-83.8975" x2="-11.7633" y2="-75.2674" gradientTransform="matrix(-1 0 0 1 -94 0)">
		<stop  offset="0" style="stop-color:#F3978F"/>
		<stop  offset="0.2775" style="stop-color:#E86522"/>
		<stop  offset="0.8586" style="stop-color:#E83222"/>
		<stop  offset="0.9634" style="stop-color:#000000"/>
	</linearGradient>
	<polygon fill="url(#SVGID_32_)" points="-73,-87 -90.9,-87 -73,-64 	"/>
	
		<linearGradient id="SVGID_33_" gradientUnits="userSpaceOnUse" x1="-74.8672" y1="-584.7754" x2="-64.1883" y2="-576.1459" gradientTransform="matrix(1 -0.0019 -0.0019 -1 -0.5516 -674.7908)">
		<stop  offset="0" style="stop-color:#F3978F"/>
		<stop  offset="0.2775" style="stop-color:#E86522"/>
		<stop  offset="0.8586" style="stop-color:#FA8F41"/>
		<stop  offset="0.9634" style="stop-color:#000000"/>
	</linearGradient>
	<polygon fill="url(#SVGID_33_)" points="-72.878,-86.799 -54.878,-86.832 -72.922,-109.799 	"/>
	<linearGradient id="SVGID_34_" gradientUnits="userSpaceOnUse" x1="-72.1943" y1="-124.0791" x2="-72.9585" y2="-84.061">
		<stop  offset="0.199" style="stop-color:#BE4C57"/>
		<stop  offset="0.5759" style="stop-color:#EEC2C3"/>
		<stop  offset="0.8586" style="stop-color:#B60006"/>
	</linearGradient>
	<path fill="url(#SVGID_34_)" d="M-102.129-87.646c0.953-1.255,26.75-35.229,26.75-35.229s2-2.713,4-0.063l28.213,36.289
		l-1.417,1.62c0,0-27.329-35.017-27.765-35.503c-0.841-0.938-1.031-0.938-1.804,0.031c-0.888,1.113-27.207,35.896-27.207,35.896
		s-0.373-0.363-0.771-0.938S-103.082-86.391-102.129-87.646z"/>
	
		<linearGradient id="SVGID_35_" gradientUnits="userSpaceOnUse" x1="-16.5601" y1="-584.6826" x2="-5.8812" y2="-576.0532" gradientTransform="matrix(-1 5.000000e-004 -5.000000e-004 -1 -88.326 -674.573)">
		<stop  offset="0" style="stop-color:#F3978F"/>
		<stop  offset="0.1832" style="stop-color:#E86522"/>
		<stop  offset="0.6178" style="stop-color:#BA0808"/>
		<stop  offset="0.8586" style="stop-color:#B60006"/>
		<stop  offset="0.9634" style="stop-color:#000000"/>
	</linearGradient>
	<polygon fill="url(#SVGID_35_)" points="-72.894,-86.82 -90.894,-86.811 -72.905,-109.82 	"/>
	<linearGradient id="SVGID_36_" gradientUnits="userSpaceOnUse" x1="-72.9575" y1="-90.9648" x2="-73.5804" y2="-58.3464">
		<stop  offset="0.199" style="stop-color:#BE4C57"/>
		<stop  offset="0.6911" style="stop-color:#BE4C57"/>
		<stop  offset="0.8586" style="stop-color:#B60006"/>
	</linearGradient>
	<path fill="url(#SVGID_36_)" d="M-92.4-82.834c1.152,1.471,18.041,23.043,18.041,23.043s1.459,2.208,2.771,0.354
		c0.718-1.016,17.337-22.125,17.962-23.313s-0.25-3.125-1.608-2.25l-17.653,22.688l0,0c-1.167-1.166-15.535-19.875-17.23-22.188
		S-93.552-84.305-92.4-82.834z"/>
	<polygon fill="none" stroke="#000006" stroke-width="2" stroke-miterlimit="10" points="-72.905,-109.82 -54.878,-86.832 
		-72.9,-64 -90.894,-86.811 	"/>
</g>
<linearGradient id="SVGID_37_" gradientUnits="userSpaceOnUse" x1="240.3545" y1="-105.5" x2="450.5605" y2="-105.5">
	<stop  offset="0" style="stop-color:#000000"/>
	<stop  offset="0.3351" style="stop-color:#097664"/>
	<stop  offset="0.4974" style="stop-color:#0A8470"/>
	<stop  offset="0.6649" style="stop-color:#0FC6A8"/>
	<stop  offset="1" style="stop-color:#097F6B"/>
</linearGradient>
<polygon fill="url(#SVGID_37_)" points="240.354,-77 249.188,-58 286.227,-58 331.354,-142 415.65,-142 431.402,-117 403.729,-117 
	407.986,-104 450.561,-104 420.333,-153 321.138,-153 275.583,-71 257.277,-71 251.743,-83.75 "/>
<linearGradient id="SVGID_38_" gradientUnits="userSpaceOnUse" x1="409.4443" y1="-106.1035" x2="458.2477" y2="-144.784">
	<stop  offset="0" style="stop-color:#7E0700"/>
	<stop  offset="0.1257" style="stop-color:#B60006"/>
	<stop  offset="0.2775" style="stop-color:#FFFFFF"/>
	<stop  offset="0.4869" style="stop-color:#BF1F24"/>
	<stop  offset="0.5969" style="stop-color:#790800"/>
	<stop  offset="0.822" style="stop-color:#7E0700"/>
	<stop  offset="1" style="stop-color:#7C0700"/>
</linearGradient>
<polygon fill="url(#SVGID_38_)" stroke="#00040F" stroke-width="3" stroke-miterlimit="10" points="390.229,-131.5 404.496,-131.5 
	434.708,-85.5 420.441,-85.5 "/>
<linearGradient id="SVGID_39_" gradientUnits="userSpaceOnUse" x1="200.3765" y1="-82.5273" x2="221.6489" y2="-82.5273">
	<stop  offset="0.1204" style="stop-color:#B60006"/>
	<stop  offset="0.5393" style="stop-color:#BE4C57"/>
	<stop  offset="0.5864" style="stop-color:#BE4C57"/>
	<stop  offset="0.8586" style="stop-color:#B60006"/>
</linearGradient>
<path fill="url(#SVGID_39_)" d="M221.646-77.196c0.194,0.259-8.511,3.66-18.414,0.132c-9.9-3.527,9.127-12.519,9.127-12.519
	L221.646-77.196z"/>
<path fill="#58442A" stroke="#000000" stroke-width="4" stroke-miterlimit="10" d="M235.229-134h153.963l35.815,53.723
	c0,0,1.235,2.402,0,3.402c-1.234,1-189.651,0.36-189.651,0.36l17.437-29.288L235.229-134z"/>
<linearGradient id="SVGID_40_" gradientUnits="userSpaceOnUse" x1="236.1592" y1="-106.5" x2="420.7256" y2="-106.5">
	<stop  offset="0.2042" style="stop-color:#867764"/>
	<stop  offset="0.8796" style="stop-color:#867764"/>
	<stop  offset="0.9843" style="stop-color:#58442A"/>
</linearGradient>
<polygon fill="url(#SVGID_40_)" points="236.159,-132 388.734,-132 420.726,-81 417.5,-81 387.5,-128.999 238,-128.875 "/>
<linearGradient id="SVGID_41_" gradientUnits="userSpaceOnUse" x1="212.1558" y1="-145.54" x2="211.7517" y2="-124.3823">
	<stop  offset="0" style="stop-color:#B60006"/>
	<stop  offset="0.4503" style="stop-color:#BE4C57"/>
	<stop  offset="0.5079" style="stop-color:#BE4C57"/>
	<stop  offset="0.8848" style="stop-color:#B91820"/>
</linearGradient>
<path fill="url(#SVGID_41_)" d="M210.203-124.419c-0.19,0.261-5.974-7.081-5.474-17.581s14.63,5.096,14.63,5.096L210.203-124.419z"
	/>
<linearGradient id="SVGID_42_" gradientUnits="userSpaceOnUse" x1="208.6553" y1="-123.1611" x2="248.3267" y2="-93.1097">
	<stop  offset="0" style="stop-color:#7E0700"/>
	<stop  offset="0.1257" style="stop-color:#B60006"/>
	<stop  offset="0.2251" style="stop-color:#790800"/>
	<stop  offset="0.4974" style="stop-color:#BF1F24"/>
	<stop  offset="0.822" style="stop-color:#7E0700"/>
	<stop  offset="0.911" style="stop-color:#B60006"/>
	<stop  offset="1" style="stop-color:#7C0700"/>
</linearGradient>
<polygon fill="url(#SVGID_42_)" stroke="#000000" stroke-width="2" stroke-miterlimit="10" points="228.229,-149 197.063,-107.723 
	228.229,-67.667 229.57,-69.39 257.645,-105.471 259.396,-107.723 229.834,-146.874 "/>
<linearGradient id="SVGID_43_" gradientUnits="userSpaceOnUse" x1="226.6226" y1="-104.9785" x2="237.3021" y2="-96.3485">
	<stop  offset="0" style="stop-color:#F3978F"/>
	<stop  offset="0.288" style="stop-color:#F7CC85"/>
	<stop  offset="0.8272" style="stop-color:#FFFFB7"/>
	<stop  offset="0.9738" style="stop-color:#F99961"/>
</linearGradient>
<polygon fill="url(#SVGID_43_)" points="228,-108 246.229,-108 228,-85 "/>
<linearGradient id="SVGID_44_" gradientUnits="userSpaceOnUse" x1="-323.4688" y1="-104.8662" x2="-312.7892" y2="-96.2362" gradientTransform="matrix(-1 0 0 1 -94 0)">
	<stop  offset="0" style="stop-color:#F3978F"/>
	<stop  offset="0.2775" style="stop-color:#E86522"/>
	<stop  offset="0.8586" style="stop-color:#E83222"/>
	<stop  offset="0.9634" style="stop-color:#000000"/>
</linearGradient>
<polygon fill="url(#SVGID_44_)" points="228,-108 210.229,-108 228,-85 "/>
<linearGradient id="SVGID_45_" gradientUnits="userSpaceOnUse" x1="226.3013" y1="-564.3477" x2="236.9801" y2="-555.7182" gradientTransform="matrix(1 -0.0019 -0.0019 -1 -0.5516 -674.7908)">
	<stop  offset="0" style="stop-color:#F3978F"/>
	<stop  offset="0.2775" style="stop-color:#E86522"/>
	<stop  offset="0.8586" style="stop-color:#FA8F41"/>
	<stop  offset="0.9634" style="stop-color:#000000"/>
</linearGradient>
<polygon fill="url(#SVGID_45_)" points="228.251,-107.799 246.251,-107.832 228.207,-130.799 "/>
<linearGradient id="SVGID_46_" gradientUnits="userSpaceOnUse" x1="229.0518" y1="-147.4941" x2="228.2458" y2="-105.2914">
	<stop  offset="0.199" style="stop-color:#BE4C57"/>
	<stop  offset="0.5759" style="stop-color:#EEC2C3"/>
	<stop  offset="0.8586" style="stop-color:#B60006"/>
</linearGradient>
<path fill="url(#SVGID_46_)" d="M198.354-107.723l29.853-39.777c0,0-0.228-0.333,1.772,2.667l28.25,37.11l-1.625,1.695
	c0,0-27.016-35.003-27.375-35.473c-0.102-0.133-1.138-1.112-2.25,0c-1.007,1.007-27.125,35.666-27.125,35.666L198.354-107.723z"/>
<linearGradient id="SVGID_47_" gradientUnits="userSpaceOnUse" x1="-317.6997" y1="-563.833" x2="-307.0209" y2="-555.2036" gradientTransform="matrix(-1 5.000000e-004 -5.000000e-004 -1 -88.326 -674.573)">
	<stop  offset="0" style="stop-color:#F3978F"/>
	<stop  offset="0.1832" style="stop-color:#E86522"/>
	<stop  offset="0.6178" style="stop-color:#BA0808"/>
	<stop  offset="0.8586" style="stop-color:#B60006"/>
	<stop  offset="0.9634" style="stop-color:#000000"/>
</linearGradient>
<polygon fill="url(#SVGID_47_)" points="228.235,-107.82 210.235,-107.811 228.225,-130.82 "/>
<linearGradient id="SVGID_48_" gradientUnits="userSpaceOnUse" x1="228.3003" y1="-111.7217" x2="227.682" y2="-79.3462">
	<stop  offset="0.199" style="stop-color:#BE4C57"/>
	<stop  offset="0.6911" style="stop-color:#BE4C57"/>
	<stop  offset="0.8586" style="stop-color:#B60006"/>
</linearGradient>
<path fill="url(#SVGID_48_)" d="M208.729-103.834l18.041,23.043c0,0,1.459,2.208,2.771,0.354
	c0.718-1.016,18.021-23.125,18.021-23.125s0.001-2.771-1.666-2.438l-17.653,22.688l0,0c-1.167-1.166-17.23-22.188-17.23-22.188
	S209.354-106.292,208.729-103.834z"/>
<polygon fill="none" stroke="#000006" stroke-width="2" stroke-miterlimit="10" points="228.225,-130.82 246.251,-107.832 
	228.229,-85 210.235,-107.811 "/>
<g>
</g>
<g>
</g>
<g>
</g>
<g>
</g>
<g>
</g>
<g>
</g>
<g>
</g>
<g>
</g>
<g>
</g>
<g>
</g>
<g>
</g>
<g>
</g>
<g>
</g>
<g>
</g>
<g>
</g>
</svg>
