<?xml version="1.0" encoding="utf-8"?>
<!-- Generator: Adobe Illustrator 16.0.3, SVG Export Plug-In . SVG Version: 6.00 Build 0)  -->
<!DOCTYPE svg PUBLIC "-//W3C//DTD SVG 1.1//EN" "http://www.w3.org/Graphics/SVG/1.1/DTD/svg11.dtd">
<svg version="1.1" id="Capa_1" xmlns="http://www.w3.org/2000/svg" xmlns:xlink="http://www.w3.org/1999/xlink" x="0px" y="0px"
	 width="179px" height="171.5px" viewBox="0 0 179 171.5" enable-background="new 0 0 179 171.5" xml:space="preserve">
<path fill="none" stroke="#FFFFFF" stroke-width="5" stroke-miterlimit="10" d="M163.885,62.122"/>
<path fill="none" stroke="#000000" stroke-miterlimit="10" d="M65.846,7.387"/>
<g>
	<path fill="none" stroke="#FFFFFF" stroke-width="5" stroke-miterlimit="10" d="M90.337,167.848
		c11.706-20.773,23.7-40.777,34.833-61.548"/>
	<path fill="none" stroke="#FFFFFF" stroke-width="5" stroke-miterlimit="10" d="M127.408,109.972"/>
	<line fill="none" stroke="#FFFFFF" stroke-width="5" stroke-miterlimit="10" x1="94.69" y1="34.184" x2="60.69" y2="57.684"/>
	<line fill="none" stroke="#FFFFFF" stroke-width="5" stroke-miterlimit="10" x1="118.565" y1="53.966" x2="84.565" y2="77.466"/>
	<path fill="none" stroke="#FFFFFF" stroke-width="5" stroke-miterlimit="10" d="M125.387,105.946
		c-1.146,2.005-3.733,2.684-5.78,1.52L29.741,56.181c-2.046-1.168-2.776-3.743-1.63-5.751L53.614,5.745
		c1.145-2.009,3.733-2.689,5.779-1.521l89.866,51.283c2.046,1.169,2.776,3.747,1.63,5.752L125.387,105.946z"/>
</g>
<g>
</g>
<g>
</g>
<g>
</g>
<g>
</g>
<g>
</g>
<g>
</g>
</svg>
